<?xml version="1.0" encoding="utf-8"?>
<!-- Generator: Adobe Illustrator 16.0.4, SVG Export Plug-In . SVG Version: 6.00 Build 0)  -->
<!DOCTYPE svg PUBLIC "-//W3C//DTD SVG 1.1//EN" "http://www.w3.org/Graphics/SVG/1.1/DTD/svg11.dtd">
<svg version="1.1" xmlns="http://www.w3.org/2000/svg" xmlns:xlink="http://www.w3.org/1999/xlink" x="0px" y="0px" width="600px"
	 height="600px" viewBox="0 0 600 600" enable-background="new 0 0 600 600" xml:space="preserve">
<g id="レイヤー_2" display="none">
	<g display="inline">
		<rect x="1.772" fill="#FFCC99" width="598.228" height="602.763"/>

			<path fill="#CCCCCC" stroke="#231815" stroke-width="6" stroke-linecap="round" stroke-linejoin="round" stroke-miterlimit="10" d="
			M196.112,424.267c0,0-72.264,17.771-80.557,81.742c-8.294,63.97,19.448,126.946,42.479,157.358
			c18.747,24.754,22.511,31.1,22.511,31.1s-13.734,8.543-14.271,13.452c-0.538,4.91,39.263,0.467,65.623-1.904
			c26.357-2.366,44.603-0.591,47.565-9.181c2.962-8.591-12.91-36.427-12.91-36.427s14.217-11.848,21.322-11.848
			c7.108,0,24.88,10.664,24.88,10.664s-16.095,34.354-8.987,40.274c7.107,5.926,102.028,11.629,113.873,7.024
			c11.848-4.608-10.235-18.87-10.235-18.87s72.828-94.315,48.146-172.164c-15.399-48.572-75.817-82.925-75.817-82.925
			L196.112,424.267z"/>

			<path fill="#CCCCCC" stroke="#231815" stroke-width="6" stroke-linecap="round" stroke-linejoin="round" stroke-miterlimit="10" d="
			M402.262,477.858c5.714,9.043,7.054,15.72,4.715,25.021c-3.258,12.967-40.099,3.356-55.687,4.852
			c2.007,4.53,15.456,12.354,19.621,16.358c-5.794-1.333-15.494-0.166-21.729,0.432c0.822,5.271,8.654,9.868,12.817,13.874
			c-9.354,0.897-9.354,0.897-17.134,2.094l-13.372,4.604c5.349,3.269,41.113,12.068,46.462,15.331
			c40.465,18.456,108.549,36.152,138.651-10.781c13.796-20.196,6.854-44.399,3.298-67.331
			c-6.962-44.915-66.331-65.052-85.932-72.609"/>

			<path fill="#CCCCCC" stroke="#231815" stroke-width="6" stroke-linecap="round" stroke-linejoin="round" stroke-miterlimit="10" d="
			M133.373,405.732c0,0-106.787,31.835-83.861,104.889c24.227,77.216,82.37,85.333,134.404,73.484
			c52.033-11.848,84.775-23.694,84.775-23.694l-15.78-7.862l10.647-12.251l-12.312-0.779l1.664-11.845
			c0,0-37.572-1.144-43.727-2.836c-28.83-7.926-49.18-40.244-49.18-40.244"/>
		<g>
			<path fill="#CCCCCC" d="M153.482,146.637c25.404-34.643,92.239-55.871,130.348-55.871c40.417,0,115.478,20.787,147.812,48.5
				c8.403-18.575,37.971-47.505,61.064-34.802c37.562,20.659,21.191,58.875,5.891,89.765c14.171,16.467,20.421,32.801,27.35,58.207
				c15.013,56.585,14.386,113.609-23.72,158.646c-41.573,51.965-94.693,70.441-159.361,73.905
				c-50.81,3.465-123.446-5.102-171.946-23.579C113.18,438.313,87.66,396.07,69.184,339.484c-9.239-25.403-3.465-62.356,2.31-87.762
				c3.464-11.548,10.393-24.25,11.548-35.799c2.308-12.702,4.619-4.619-2.311-16.166c-2.31-5.774-9.237-11.547-12.702-17.322
				c-13.857-19.631-15.589-53.409,11.548-70.441C122.277,85.19,153.482,146.637,153.482,146.637z"/>
			<g>
				<path fill="#231815" d="M157.8,149.161c12.893-17.273,33.363-28.593,52.861-36.788c20.081-8.439,41.806-14.406,63.552-16.207
					c19.985-1.654,40.249,1.904,59.661,6.355c22.973,5.267,45.719,12.698,66.893,23.107c9.636,4.737,19.121,10.219,27.34,17.173
					c2.247,1.902,6.391,2.123,7.853-1.012c5.691-12.204,15.646-22.813,27.069-29.838c5.544-3.409,11.746-5.669,18.302-5.597
					c7.388,0.082,14.271,5.18,19.39,10.053c21.281,20.258,4.034,54.104-6.44,75.298c-1.07,2.165-0.77,4.233,0.782,6.059
					c16.607,19.542,23.784,44.595,29.269,69.187c5.905,26.48,8.022,54.261,2.793,81.032c-9.786,50.088-49.909,91.563-95.267,112.506
					c-44.298,20.452-96.405,22.361-144.309,19.105c-26.953-1.832-53.811-5.829-80.063-12.224
					c-23.68-5.768-46.545-13.812-66.811-27.608c-17.935-12.211-32.24-28.824-43.252-47.4c-5.699-9.613-10.492-19.768-14.697-30.113
					c-4.428-10.891-8.917-22.253-11.435-33.756c-2.804-12.81-2.259-26.363-1.061-39.332c1.149-12.436,2.852-25.732,6.579-37.691
					c2.078-6.667,4.98-13.067,7.371-19.623c2.361-6.475,2.98-13.157,4.887-19.705c0.823-2.825,1.891-4.912,0.48-7.826
					c-1.969-4.066-4.812-8.367-7.421-12.032c-5.818-8.174-12.542-14.756-16-24.408c-2.933-8.184-3.733-17.152-2.063-25.69
					c3.434-17.559,19.865-32.092,38.004-31.954c20.937,0.16,38.365,21.82,47.1,38.927c2.933,5.745,11.561,0.684,8.635-5.047
					c-11.092-21.725-33.34-45.829-59.799-43.734c-21.141,1.673-39.068,18.841-43.583,39.149c-2.192,9.859-1.301,20.306,1.69,29.891
					c3.449,11.055,10.476,18.93,17.382,27.912c2.726,3.545,4.962,7.837,7.261,11.702c-1.065-1.791-0.061-3.167-1.066-0.354
					c-1.052,2.944-1.419,6.025-1.917,9.09c-2.213,13.641-9.735,25.891-12.581,39.436c-5.223,24.867-8.861,51.742-2.89,76.794
					c2.713,11.383,7.381,22.664,11.83,33.464c4.239,10.291,9.047,20.33,14.659,29.945c10.896,18.668,25.188,34.917,42.485,47.876
					c19.209,14.392,41.64,23.094,64.611,29.412c25.725,7.076,52.268,11.277,78.799,13.837c48.571,4.688,100.496,3.56,146.857-13.111
					c22.119-7.954,42.394-19.972,60.102-35.409c19.497-16.996,36.865-38.354,46.843-62.339
					c10.21-24.545,12.949-51.262,10.937-77.618c-2.034-26.644-8.167-54.155-18.487-78.837c-4.678-11.188-10.95-21.29-18.801-30.527
					c0.261,2.02,0.521,4.04,0.782,6.059c13.384-27.079,30.19-64.777,2.932-89.213c-6.142-5.506-13.855-10.179-22.193-11.007
					c-8.261-0.82-16.183,1.707-23.428,5.505c-13.823,7.248-26.312,20.576-32.9,34.705c2.617-0.337,5.235-0.675,7.853-1.012
					c-16.282-13.777-36.199-22.731-56.027-30.132c-21.835-8.15-44.663-14.08-67.719-17.497c-19.494-2.889-38.292-2.751-57.682,0.875
					c-22.413,4.191-44.43,11.9-64.565,22.588c-15.268,8.104-29.614,18.608-40.019,32.548
					C145.303,149.288,153.991,154.264,157.8,149.161z"/>
			</g>
		</g>
		<g>
			<g>
				<path fill="#333333" d="M211.823,345.978c0-17.044,8.246-34.086,13.194-40.683c6.288-8.385,16.494-17.224,25.288-23.09
					c14.291-10.258,27.129-11.539,45.079-10.995c18.142,0.549,38.864,4.68,58.824,21.991c13.899,12.055,28.037,35.732,15.943,63.77
					c-9.338,21.648-24.739,58.275-68.72,59.374c-32.444,0.81-52.898-8.25-72.019-30.785
					C214.021,367.418,211.823,359.896,211.823,345.978z"/>
			</g>
			<g>
				<g>
					<path fill="#231815" d="M246.417,320.851c3.715-5.557,6.593-12.147,11.224-17.018c4.627-4.866,12.804-2.752,18.063-0.169
						c6.737,3.309,11.841,7.648,13.769,14.955c1.714,6.499,2.768,13.483,2.864,20.21c0.046,3.231,4.887,3.215,5,0
						c0.397-11.321,1.414-26.625,9.753-35.211c9.408-9.689,29.808,3.471,32.064,14.436c0.65,3.156,5.47,1.817,4.822-1.33
						c-1.412-6.856-7.728-12.516-13.226-16.264c-6.767-4.611-16.157-6.627-23.753-2.945c-6.511,3.156-9.543,11.519-11.394,17.95
						c-2.167,7.53-2.993,15.555-3.267,23.364c1.667,0,3.333,0,5,0c-0.112-7.871-1.455-16.097-3.623-23.649
						c-2.275-7.927-9.504-12.896-16.6-16.38c-6.124-3.007-14.56-4.327-20.591-0.498c-6.688,4.246-10.19,13.694-14.423,20.025
						C240.301,321.016,244.634,323.517,246.417,320.851L246.417,320.851z"/>
				</g>
			</g>
			<g>
				<g>
					<path fill="#231815" d="M225.94,424.769c15.653,17.021,38.103,26.834,60.924,28.999c27.436,2.602,53.668-8.729,72.47-28.448
						c3.336-3.498-1.96-8.81-5.303-5.303c-17.768,18.634-41.408,28.326-67.167,26.251c-20.771-1.674-41.5-11.448-55.621-26.802
						C227.963,415.898,222.673,421.216,225.94,424.769L225.94,424.769z"/>
				</g>
			</g>
			<g>
				<g>
					<path fill="#231815" d="M421.163,284.192c-11.775,4.595-24.157,6.284-36.619,3.724c-15.377-3.159-28.375-12.835-39.013-23.971
						c-2.23-2.336-5.761,1.205-3.535,3.535c11.05,11.569,24.199,20.981,39.877,24.95c13.522,3.423,27.758,1.603,40.62-3.417
						C425.462,287.854,424.171,283.018,421.163,284.192L421.163,284.192z"/>
				</g>
			</g>
			<g>
				<g>
					<path fill="#231815" d="M169.33,281.615c12.796,8.531,28.477,13.418,43.913,11.248c15.64-2.199,28.448-11.289,36.473-24.789
						c1.651-2.778-2.672-5.292-4.317-2.523c-16.026,26.96-49.235,27.953-73.544,11.747
						C169.162,275.503,166.662,279.836,169.33,281.615L169.33,281.615z"/>
				</g>
			</g>
		</g>
		<g>
			<path fill="#FFFFFF" d="M168.391,256.366c23.642-14.294,40.684-21.989,75.317,0c-9.896,14.844-24.189,17.043-38.481,17.043
				C187.634,273.409,181.035,266.812,168.391,256.366"/>
			<g>
				<path fill="#231815" d="M169.652,258.525c9.99-6.021,20.431-12.125,32.275-13.265c14.617-1.407,28.525,5.754,40.519,13.265
					c-0.299-1.14-0.598-2.28-0.897-3.42c-8.698,12.515-21.829,15.729-36.323,15.805c-6.895,0.036-13.459-1.246-19.535-4.553
					c-5.695-3.099-10.571-7.646-15.533-11.757c-2.462-2.041-6.021,1.476-3.535,3.535c5.628,4.664,11.143,9.6,17.596,13.112
					c6.457,3.513,13.75,4.574,21.008,4.664c16.334,0.201,31.011-4.427,40.64-18.281c0.795-1.145,0.188-2.741-0.897-3.42
					c-12.93-8.097-27.405-15.046-43.042-13.948c-12.706,0.893-24.139,7.523-34.798,13.948
					C164.372,255.869,166.883,260.194,169.652,258.525L169.652,258.525z"/>
			</g>
		</g>
		<g>
			<path fill="#FFFFFF" d="M350.907,255.817c27.486-13.194,46.731-19.792,77.515,0C402.034,278.906,378.394,272.859,350.907,255.817
				"/>
			<g>
				<path fill="#231815" d="M352.169,257.976c11.294-5.4,22.981-10.807,35.6-11.979c14.291-1.328,27.571,4.513,39.392,11.979
					c-0.169-1.309-0.338-2.618-0.506-3.926c-10.498,8.988-22.52,14.95-36.578,14.317c-13.666-0.615-26.529-7.72-37.907-14.708
					c-2.756-1.692-5.266,2.634-2.523,4.317c12.407,7.62,25.69,14.294,40.431,15.391c15.196,1.13,28.901-6.182,40.113-15.782
					c1.271-1.087,0.77-3.121-0.506-3.926c-12.328-7.788-25.787-13.388-40.596-12.752c-13.934,0.599-27.08,6.841-39.442,12.752
					C346.737,255.049,349.275,259.359,352.169,257.976L352.169,257.976z"/>
			</g>
		</g>
		<g>
			<g>
				<path fill="#231815" d="M194.349,209.205c12.16-10.198,35.539-4.782,43.903,8.291c1.731,2.707,6.061,0.201,4.317-2.523
					c-10.213-15.963-37.037-21.647-51.755-9.302C188.34,207.744,191.896,211.262,194.349,209.205L194.349,209.205z"/>
			</g>
		</g>
		<g>
			<g>
				<path fill="#231815" d="M407.649,204.671c-6.817-7.643-17.577-9.457-27.326-7.922c-8.453,1.331-19.228,5.025-23.329,13.276
					c-1.43,2.877,2.883,5.411,4.318,2.523c3.202-6.441,11.514-9.192,18.049-10.585c8.649-1.844,18.621-0.631,24.753,6.243
					C406.265,210.618,409.788,207.069,407.649,204.671L407.649,204.671z"/>
			</g>
		</g>
		<g>
			<path fill="#FFFFFF" d="M245.903,353.123c0,0,29.115,15.774,52.78,17.593c14.294,1.099,47.828-13.194,47.828-13.194
				s-2.922,13.726-4.947,17.042c-6.047,9.896-11.545,18.691-24.188,21.99c-14.713,3.838-33.871,3.15-47.279-3.849
				C257.453,386.107,239.855,375.362,245.903,353.123"/>
			<g>
				<path fill="#231815" d="M244.642,355.281c6.243,3.367,12.783,6.216,19.355,8.868c11.351,4.581,23.956,8.898,36.32,9.127
					c9.703,0.179,19.798-3.462,28.859-6.522c6.28-2.122,12.496-4.481,18.598-7.074c-1.224-0.94-2.448-1.882-3.673-2.823
					c-0.675,3.152-1.439,6.285-2.272,9.398c-1.414,5.287-3.736,9.379-6.788,13.921c-3.483,5.187-7.751,9.435-13.374,12.231
					c-6.768,3.367-15.375,3.861-22.783,3.966c-22.665,0.319-57.596-14.528-50.569-42.585c0.784-3.129-4.039-4.456-4.821-1.33
					c-7.476,29.85,25.421,47.069,50.559,48.786c15.202,1.038,31.548-1.754,41.795-13.848c7.448-8.79,10.704-18.147,13.076-29.21
					c0.494-2.31-1.667-3.676-3.673-2.823c-3.77,1.602-11.249,4.433-16.31,6.193c-8.863,3.084-18.308,6.284-27.755,6.706
					c-11.522,0.516-24.023-4.338-34.59-8.433c-6.619-2.564-13.177-5.493-19.43-8.865
					C244.328,349.435,241.803,353.751,244.642,355.281L244.642,355.281z"/>
			</g>
		</g>
		<g>
			<g>
				<path fill="#231815" d="M246.846,367.377c14.919,8.511,30.613,17.989,48.12,19.41c19.05,1.545,36.811-9.465,51.709-19.961
					c2.613-1.841,0.119-6.179-2.523-4.316c-14.167,9.979-30.1,19.952-48.072,19.341c-16.791-0.57-32.582-10.73-46.71-18.792
					C246.564,361.459,244.046,365.779,246.846,367.377L246.846,367.377z"/>
			</g>
		</g>
		<circle cx="220.89" cy="260.488" r="4.673"/>
		<circle cx="405.881" cy="258.436" r="4.673"/>
	</g>
</g>
<g id="レイヤー_3" display="none">
	<g display="inline">
		<rect x="0.022" y="-2" fill="#FFCC99" width="606.001" height="602.513"/>
		<g>

				<path fill="#996633" stroke="#231815" stroke-width="4" stroke-linecap="round" stroke-linejoin="round" stroke-miterlimit="10" d="
				M427.403,600.184"/>

				<path fill="#CCCCCC" stroke="#231815" stroke-width="4" stroke-linecap="round" stroke-linejoin="round" stroke-miterlimit="10" d="
				M196.414,426.993c0,0-74.608,18.165-83.169,83.567c-8.562,65.4,17.774,161.256,41.554,192.348
				c19.358,25.308,23.24,31.792,23.24,31.792s-14.179,8.733-14.735,13.753c-0.552,5.02,40.539,0.477,67.753-1.945
				c27.213-2.423,46.053-0.604,49.109-9.385c3.058-8.781-13.331-37.244-13.331-37.244s14.677-12.109,22.015-12.109
				s25.688,10.9,25.688,10.9s-16.618,35.121-9.279,41.178c7.338,6.056,105.338,11.888,117.568,7.177
				c12.229-4.708-10.568-19.289-10.568-19.289s77.497-127.898,52.011-207.487c-15.9-49.655-78.277-84.777-78.277-84.777
				L196.414,426.993z"/>
			<g>
				<g>
					<path fill="#231815" d="M253.179,537.3c3.709,8.868,6.217,18.525,12.945,25.707c0.946,1.01,2.577,0.92,3.535,0
						c3.409-3.27,6.691-6.146,9-10.347c-1.438,0-2.878,0-4.317,0c4.241,6.558,10.38,10.501,17.487,13.45
						c1.597,0.662,3.08-0.964,3.165-2.411c0.247-4.21,2.118-8.105,2.461-12.301c-1.055,0.804-2.109,1.607-3.165,2.411
						c6.962,2.508,12.833,6.983,19.086,10.817c1.627,0.998,3.763-0.293,3.762-2.158c-0.003-6.821-0.102-13.616-1.318-20.347
						c-0.574-3.169-5.392-1.822-4.822,1.33c1.136,6.277,1.138,12.657,1.141,19.017c1.254-0.72,2.508-1.439,3.762-2.158
						c-6.654-4.08-12.875-8.654-20.279-11.323c-1.641-0.591-3.043,0.913-3.165,2.411c-0.342,4.174-2.213,8.071-2.461,12.301
						c1.055-0.804,2.109-1.607,3.165-2.411c-5.828-2.418-11.02-5.771-14.5-11.151c-0.984-1.523-3.375-1.713-4.317,0
						c-2.1,3.818-5.133,6.374-8.219,9.335c1.178,0,2.357,0,3.535,0c-6.084-6.495-8.304-15.479-11.659-23.502
						C256.776,533.041,251.936,534.325,253.179,537.3L253.179,537.3z"/>
				</g>
			</g>
		</g>
		<g>
			<path fill="#CCCCCC" d="M158.314,131.692c26.644-36.334,96.74-58.598,136.708-58.598c42.388,0,121.111,21.8,155.023,50.868
				c8.812-19.483,39.822-49.824,64.044-36.5c39.395,21.666,22.225,61.747,6.177,94.144c14.863,17.27,21.417,34.4,28.685,61.045
				c15.744,59.344,15.088,119.154-24.877,166.386c-43.602,54.5-99.314,73.879-167.137,77.512
				c-53.289,3.634-129.469-5.351-180.336-24.729C116.046,437.6,89.281,393.295,69.902,333.949
				c-9.689-26.646-3.633-65.399,2.422-92.044c3.633-12.111,10.9-25.434,12.111-37.546c2.421-13.322,4.845-4.844-2.424-16.954
				c-2.422-6.058-9.688-12.111-13.321-18.169c-14.534-20.588-16.35-56.014,12.111-73.878
				C125.586,67.247,158.314,131.692,158.314,131.692z"/>
			<g>
				<path fill="#231815" d="M162.632,134.216c12.815-17.186,32.676-28.484,51.886-37.094c20.154-9.033,42.167-15.316,64.103-17.982
					c19.583-2.381,39.159-0.021,58.411,3.776c23.397,4.616,46.589,11.52,68.528,20.893c14.414,6.158,28.925,13.509,40.951,23.69
					c2.246,1.902,6.393,2.124,7.853-1.012c5.857-12.581,16.061-23.539,27.735-30.931c5.856-3.708,12.459-6.304,19.449-6.369
					c7.882-0.072,15.113,5.044,20.655,10.18c23.02,21.33,4.913,57.125-6.254,79.716c-1.07,2.164-0.771,4.233,0.782,6.059
					c16.618,19.543,24.068,44.172,29.866,68.732c6.261,26.517,9.122,54.351,5.159,81.441c-7.519,51.4-44.436,94.921-89.074,119.591
					c-42.412,23.439-93.044,28.341-140.695,27.313c-27.05-0.583-54.082-3.461-80.696-8.284c-24.818-4.497-50.2-10.466-73.13-21.208
					c-20.347-9.532-38.284-23.101-52.809-40.243c-14.191-16.749-24.394-36.725-32.455-57.026
					c-4.373-11.016-8.865-22.453-11.247-34.085c-2.673-13.052-2.123-26.792-0.917-39.979c1.176-12.852,3.576-25.582,6.413-38.16
					c1.51-6.695,4.843-13.207,7.278-19.602c2.637-6.925,3.859-13.782,5.458-20.953c0.646-2.895,2.413-5.677,1.789-8.719
					c-0.763-3.724-4.353-6.885-5.889-10.291c-2.483-5.504-7.543-9.795-11.147-14.535c-3.026-3.979-5.611-8.503-7.459-13.146
					c-7.695-19.33-3.593-42.121,13.751-54.718c15.229-11.06,32.935-9.74,47.515,1.533c9.977,7.714,17.959,18.067,24.208,28.952
					c0.465,0.81,0.923,1.627,1.348,2.459c2.933,5.745,11.56,0.684,8.635-5.047c-11.11-21.765-32.253-44.929-58.172-45.9
					c-20.844-0.78-39.906,14.719-47.498,33.278c-7.755,18.96-2.367,39.879,8.184,56.424c3.314,5.197,8.063,9.308,11.341,14.535
					c1.457,2.324,2.64,4.794,4.171,7.096c0.414,0.622,0.839,1.235,1.252,1.857c0.697,1.05,0.264-2.584-0.034-1.594
					c-1.302,4.326-2.155,8.514-3.024,12.961c-1.443,7.388-4.555,14.452-7.296,21.423c-4.808,12.229-7.147,24.958-9.079,37.922
					c-1.981,13.294-3.094,26.739-2.47,40.182c1.102,23.728,10.869,46.979,20.759,68.303c9.084,19.585,20.955,37.914,36.128,53.337
					c34.725,35.296,83.97,48.447,131.387,56.254c50.374,8.292,102.838,10.374,153.245,1.187
					c47.769-8.707,90.439-31.89,122.054-68.965c17.593-20.633,30.341-43.569,36.135-70.211c5.696-26.188,4.422-53.322-0.102-79.572
					c-5.456-31.665-14.64-64.715-35.813-89.615c0.261,2.02,0.521,4.04,0.782,6.059c13.863-28.046,31.426-67.061,3.721-92.732
					c-6.371-5.904-14.523-10.929-23.271-11.953c-8.651-1.012-17.003,1.593-24.618,5.538c-14.58,7.553-27.766,21.59-34.688,36.457
					c2.617-0.337,5.235-0.675,7.853-1.012c-16.324-13.821-36.158-22.94-55.986-30.539c-22.086-8.464-45.167-14.655-68.492-18.545
					c-19.367-3.23-38.312-4.099-57.765-1.223c-22.232,3.287-43.988,10.207-64.407,19.514c-20.072,9.15-39.6,21.654-52.934,39.534
					C150.137,134.345,158.825,139.321,162.632,134.216z"/>
			</g>
		</g>
		<g>
			<path fill="#333333" d="M206.45,348.824c-1.571-8.185,5.225-24.219,11.684-33.906c6.865-9.287,14.13-18.165,23.819-24.628
				c15.745-11.3,29.491-16.148,49.273-16.556c24.225-0.402,54.095,7.674,71.051,24.63c14.533,14.131,34.72,39.965,19.38,64.191
				c-14.129,21.797-35.527,30.275-60.558,35.116c-22.202,4.439-55.307,5.248-75.087-8.88
				C231.479,378.299,210.475,369.819,206.45,348.824z"/>
		</g>
		<g>
			<g>
				<path fill="#231815" d="M244.848,317.48c8.994-5.734,16.875-14.877,28.498-11.463c5.767,1.695,10.792,6.168,14.81,10.453
					c5.458,5.82,3.951,13,3.798,20.247c-0.068,3.23,4.89,3.213,5,0c0.415-12.044,2.026-27.657,15.294-32.353
					c7.554-2.673,23.287-4.617,25.412,5.971c0.635,3.16,5.454,1.819,4.822-1.328c-2.732-13.609-20.468-12.747-30.739-9.73
					c-16.346,4.8-19.285,22.796-19.789,37.44c1.667,0,3.333,0,5,0c0.159-7.517,1.441-14.821-3.23-21.311
					c-3.801-5.28-9.558-9.864-15.369-12.74c-14.531-7.189-24.465,3.122-36.03,10.497
					C239.615,314.891,242.121,319.221,244.848,317.48L244.848,317.48z"/>
			</g>
		</g>
		<g>
			<g>
				<path fill="#231815" d="M258.786,433.656c7.813,13.435,22.078,21.201,37.436,21.96c16.928,0.837,32.172-8.646,40.358-23.171
					c1.585-2.812-2.735-5.332-4.318-2.523c-7.311,12.972-20.001,20.713-34.944,20.722c-13.897,0.008-27.237-7.514-34.214-19.511
					C261.483,428.348,257.162,430.863,258.786,433.656L258.786,433.656z"/>
			</g>
		</g>
		<g>
			<g>
				<path fill="#231815" d="M424.298,295.323c-6.243,4.871-15.724,4.875-23.264,4.917c-3.224,0.018-3.226,5.018,0,5
					c9.121-0.051,19.329-0.554,26.799-6.382C430.373,296.877,426.808,293.365,424.298,295.323L424.298,295.323z"/>
			</g>
		</g>
		<g>
			<g>
				<path fill="#231815" d="M170.488,301.683c10.137,8.299,20.532,9.605,33.256,9.61c3.225,0.002,3.224-4.998,0-5
					c-11.211-0.004-20.724-0.781-29.721-8.146C171.55,296.123,167.991,299.639,170.488,301.683L170.488,301.683z"/>
			</g>
		</g>
		<g>
			<circle fill="#FFFFFF" cx="200.339" cy="261.446" r="18.773"/>
			<g>
				<path fill="#231815" d="M216.612,261.446c-0.335,9.124-7.147,15.938-16.272,16.273c-9.118,0.335-15.957-7.658-16.273-16.273
					c-0.335-9.118,7.659-15.954,16.273-16.271C209.457,244.84,216.295,252.831,216.612,261.446c0.118,3.214,5.119,3.226,5,0
					c-0.437-11.891-9.382-20.833-21.272-21.271c-11.881-0.437-20.86,10.034-21.273,21.271c-0.437,11.883,10.037,20.86,21.273,21.273
					c11.883,0.437,20.859-10.037,21.272-21.273C221.73,258.22,216.73,258.231,216.612,261.446z"/>
			</g>
		</g>
		<g>
			<circle fill="#FFFFFF" cx="399.73" cy="261.446" r="18.772"/>
			<g>
				<path fill="#231815" d="M416.002,261.446c-0.335,9.125-7.147,15.938-16.272,16.273c-9.118,0.335-15.955-7.658-16.271-16.273
					c-0.335-9.118,7.656-15.954,16.271-16.271C408.847,244.84,415.686,252.831,416.002,261.446c0.118,3.214,5.118,3.226,5,0
					c-0.438-11.891-9.383-20.833-21.272-21.271c-11.882-0.437-20.858,10.035-21.271,21.271
					c-0.437,11.882,10.034,20.86,21.271,21.273c11.883,0.437,20.859-10.037,21.272-21.273
					C421.12,258.22,416.12,258.231,416.002,261.446z"/>
			</g>
		</g>
		<g>
			<path fill="#999999" d="M281.472,366.494c-4.03,2.419-6.058,4.439-8.075,8.881c-1.616,2.827-1.616,6.864-2.019,10.093
				c-0.809,10.093-1.211,22.202,7.67,28.663c7.268,5.25,17.36,5.65,26.24,3.634c11.709-2.827,13.727-11.706,15.341-22.609
				c2.018-12.514-1.801-19.083-10.017-26.002c-9.512-8.01-16.222-7.4-26.662-4.326L281.472,366.494z"/>
			<g>
				<path fill="#231815" d="M280.21,364.336c-7.435,4.649-10.377,11.16-11.178,19.704c-0.735,7.843-1.446,16.767,2.078,24.1
					c3.595,7.48,10.852,11.744,18.948,12.831c7.742,1.039,17.763,0.53,24.108-4.631c5.858-4.766,7.527-12.037,8.669-19.168
					c1.24-7.747,1.166-15.12-3.147-21.923C311.489,362.318,293.745,355.235,280.21,364.336c-2.66,1.788-0.161,6.121,2.523,4.316
					c11.272-7.578,23.724-1.588,31.618,7.724c4.326,5.103,4.781,11.767,3.867,18.114c-0.785,5.455-1.615,11.523-5.124,15.985
					c-4.186,5.323-12.259,5.934-18.479,5.902c-7.402-0.038-14.861-2.956-18.622-9.582c-3.095-5.454-2.666-12.631-2.312-18.654
					c0.477-8.103,1.765-14.933,9.051-19.489C285.46,366.948,282.952,362.62,280.21,364.336z"/>
			</g>
		</g>
		<g>

				<path fill="#CCCCCC" stroke="#231815" stroke-width="6" stroke-linecap="round" stroke-linejoin="round" stroke-miterlimit="10" d="
				M356.211,592.267c0,0,11.861-46.449,4.514-66.331c-5.574-15.08-16.646-58.812-11.671-73.847
				c7.779-23.515,30.134-30.276,30.134-30.276s-11.456-31.46,2.16-36.298c13.615-4.833,27.238,19.988,27.238,19.988l29.711,54.062
				c0,0,36.249-0.659,46.262,39.463c9.511,38.102-11.02,84.535-11.02,84.535s-25.843,49.173-56.104,49.025
				C348.486,632.249,356.211,592.267,356.211,592.267z"/>

				<path fill="#CCCCCC" stroke="#231815" stroke-width="6" stroke-linecap="round" stroke-linejoin="round" stroke-miterlimit="10" d="
				M434.333,545.396c0,0,14.924-45.139,9.177-67.611c-5.746-22.479-15.438-36.831-15.438-36.831"/>
		</g>
		<g>

				<path fill="#CCCCCC" stroke="#231815" stroke-width="6" stroke-linecap="round" stroke-linejoin="round" stroke-miterlimit="10" d="
				M236.036,592.26c0,0-12.15-47.586-4.622-67.951c5.708-15.449,17.051-60.252,11.955-75.652
				c-7.972-24.091-30.87-31.017-30.87-31.017s11.735-32.229-2.214-37.186c-13.946-4.951-27.902,20.477-27.902,20.477l-30.44,55.385
				c0,0-37.134-0.676-47.394,40.428c-9.74,39.033,11.294,86.601,11.294,86.601s26.475,50.377,57.471,50.225
				C243.948,633.221,236.036,592.26,236.036,592.26z"/>

				<path fill="#CCCCCC" stroke="#231815" stroke-width="6" stroke-linecap="round" stroke-linejoin="round" stroke-miterlimit="10" d="
				M156.005,544.244c0,0-15.292-46.239-9.404-69.265c5.889-23.027,15.816-37.729,15.816-37.729"/>
		</g>
	</g>
</g>
<g id="レイヤー_4" display="none">
	<g display="inline">
		<rect x="1.999" fill="#FFCC99" width="598.001" height="604.188"/>

			<path fill="#996633" stroke="#231815" stroke-width="4" stroke-linecap="round" stroke-linejoin="round" stroke-miterlimit="10" d="
			M421.267,575.805"/>

			<path fill="#CCCCCC" stroke="#231815" stroke-width="6" stroke-linecap="round" stroke-linejoin="round" stroke-miterlimit="10" d="
			M214.948,403.329c0,0-70.815,17.416-78.942,80.104c-8.128,62.688,19.059,124.402,41.627,154.206
			c18.372,24.258,22.061,30.476,22.061,30.476s-13.46,8.372-13.986,13.183c-0.527,4.812,38.477,0.458,64.308-1.865
			c25.829-2.319,43.709-0.579,46.612-8.997c2.903-8.419-12.651-35.697-12.651-35.697s13.932-11.609,20.896-11.609
			c6.965,0,24.381,10.449,24.381,10.449s-15.772,33.666-8.808,39.469c6.965,5.807,99.984,11.396,111.592,6.883
			c11.61-4.516-10.03-18.492-10.03-18.492s71.369-92.426,47.181-168.714c-15.09-47.6-74.299-81.264-74.299-81.264L214.948,403.329z"
			/>

			<polygon fill="#333333" stroke="#231815" stroke-width="4" stroke-linecap="round" stroke-linejoin="round" stroke-miterlimit="10" points="
			364.249,583.722 279.503,581.113 287.263,486.206 393.854,493.462 		"/>

			<path fill="#CCCCCC" stroke="#231815" stroke-width="6" stroke-linecap="round" stroke-linejoin="round" stroke-miterlimit="10" d="
			M168.954,424.225c0,0-104.646,31.198-82.181,102.788c23.741,75.668,80.719,83.623,131.71,72.012
			c50.991-11.61,83.077-23.22,83.077-23.22l-15.465-7.705l10.435-12.005l-12.064-0.764l1.63-11.607c0,0-36.819-1.12-42.85-2.779
			c-28.252-7.767-48.195-39.438-48.195-39.438"/>

			<path fill="#CCCCCC" stroke="#231815" stroke-width="6" stroke-linecap="round" stroke-linejoin="round" stroke-miterlimit="10" d="
			M414.876,500.854c6.678,6.622,9.143,12.079,8.973,20.507c-0.237,11.753-33.694,10.782-46.755,15.135
			c2.611,3.485,15.678,7.538,20.035,10.147c-5.226,0-13.307,2.913-18.531,4.652c1.742,4.356,9.359,6.749,13.716,9.361
			c-7.838,2.612-7.838,2.612-14.266,5.171l-10.551,6.581c5.226,1.744,37.604,2.235,42.83,3.977
			c38.308,7.836,100.126,9.575,116.665-36.568c7.838-20.024-2.88-39.393-10.446-58.337c-14.819-37.11-69.653-42.659-87.938-45.271"
			/>
		<g>
			<g>
				<path fill="#999999" d="M154.664,120.945c25.542-34.828,92.732-56.167,131.042-56.167c40.634,0,116.089,20.896,148.595,48.758
					c8.447-18.675,38.174-47.757,61.392-34.988c37.762,20.768,21.304,59.188,5.92,90.241c14.248,16.554,20.528,32.975,27.494,58.515
					c15.094,56.885,14.465,114.214-23.845,159.488c-41.791,52.239-95.194,70.816-160.204,74.3
					c-51.081,3.481-124.104-5.128-172.864-23.703c-58.045-23.218-83.699-65.686-102.273-122.569
					c-9.289-25.542-3.486-62.689,2.32-88.23c3.483-11.61,10.448-24.382,11.61-35.989c2.32-12.771,4.643-4.644-2.322-16.254
					c-2.323-5.803-9.289-11.607-12.772-17.412c-13.931-19.735-15.671-53.692,11.612-70.817
					C123.297,59.172,154.664,120.945,154.664,120.945z"/>
				<g>
					<path fill="#231815" d="M158.981,123.468c12.865-17.237,33.095-28.348,52.461-36.7c19.986-8.621,41.863-14.554,63.562-16.502
						c19.981-1.794,40.205,1.615,59.645,5.99c23.141,5.207,46.055,12.612,67.424,22.957c10.113,4.896,20.089,10.581,28.691,17.859
						c2.247,1.902,6.391,2.123,7.853-1.012c5.723-12.273,15.735-22.942,27.224-30.007c5.578-3.43,11.818-5.704,18.414-5.631
						c7.434,0.082,14.359,5.209,19.512,10.113c21.405,20.375,4.064,54.413-6.473,75.73c-1.07,2.165-0.771,4.233,0.782,6.059
						c16.673,19.617,23.886,44.753,29.402,69.438c5.892,26.366,8.062,54.024,3.014,80.71c-9.474,50.073-49.018,91.726-94.1,113.149
						c-43.854,20.841-95.562,23.207-143.252,20.318c-26.907-1.629-53.723-5.428-79.984-11.521
						c-23.899-5.546-47.222-13.167-67.985-26.499c-38.048-24.433-60.237-67.37-72.142-109.872
						c-6.935-24.761-1.928-52.868,3.432-77.447c1.432-6.565,4.199-12.776,6.636-19.016c2.749-7.036,4.449-13.894,5.89-21.271
						c0.51-2.611,2.444-5.84,2.155-8.553c-0.449-4.201-4.167-7.458-5.862-11.182c-2.354-5.171-7.107-9.239-10.524-13.681
						c-2.65-3.446-4.847-7.333-6.658-11.276c-3.738-8.137-4.803-17.434-3.864-26.266c1.933-18.189,18.381-34.106,36.714-35.022
						c21.971-1.099,40.323,21.356,49.398,39.134c2.933,5.745,11.56,0.684,8.635-5.047c-11.146-21.833-33.5-46.058-60.09-43.954
						C77.834,76.134,59.923,93.124,55.208,113.3c-2.279,9.753-1.498,20.12,1.315,29.668c3.137,10.65,9.526,19.08,16.564,27.452
						c3.255,3.873,5.48,8.609,8.25,12.847c0.801,1.226-0.261-1.311-0.096-1.958c-0.117,0.458-0.335,0.913-0.502,1.353
						c-0.961,2.532-1.562,5.257-1.889,7.939c-1.7,13.962-9.695,26.404-12.628,40.102c-5.356,25.012-9.075,51.879-3.539,77.173
						c2.517,11.499,7.28,22.903,11.704,33.783c4.222,10.385,9.015,20.525,14.602,30.248c10.821,18.831,25.031,35.272,42.292,48.451
						c19.063,14.556,41.388,23.466,64.312,29.897c25.56,7.172,51.949,11.449,78.333,14.126c48.574,4.93,100.39,4.095,147.017-11.798
						c22.14-7.546,42.542-19.088,60.499-34.054c19.739-16.452,37.461-37.484,48.262-60.885
						c22.446-48.633,14.654-107.623-3.521-156.359c-4.941-13.251-11.876-25.254-21.037-36.032c0.261,2.02,0.521,4.04,0.782,6.059
						c13.45-27.211,30.347-65.099,2.953-89.654c-6.169-5.53-13.918-10.226-22.293-11.057c-8.3-0.824-16.26,1.715-23.539,5.531
						c-13.895,7.284-26.445,20.679-33.067,34.88c2.617-0.337,5.235-0.675,7.853-1.012c-16.365-13.848-36.384-22.847-56.312-30.286
						c-21.951-8.193-44.9-14.154-68.077-17.589c-19.496-2.889-38.301-2.773-57.697,0.827c-22.339,4.146-44.273,11.783-64.388,22.335
						c-15.643,8.206-30.379,18.883-41.016,33.133C146.484,123.595,155.172,128.572,158.981,123.468z"/>
				</g>
			</g>
			<path fill="#CCCCCC" d="M511.101,291.339c0,91.04-94.249,164.848-210.513,164.848c-116.261,0-210.513-73.808-210.513-164.848
				c0-91.045,94.252-164.851,210.513-164.851C416.852,126.488,511.101,200.294,511.101,291.339z"/>
			<g>
				<path fill="#333333" d="M204.509,329.299c-1.316-7.879,1.302-23.438,7.496-32.727c6.58-8.898,13.543-17.41,22.832-23.605
					c15.094-10.834,31.79-15.467,50.753-15.859c23.215-0.385,48.328,7.345,64.582,23.599c13.932,13.544,27.005,37.956,13.804,62.061
					c-12.392,22.627-28.805,36.308-52.795,40.945c-21.284,4.26-44.989,6.627-73.268-10.775
					C223.278,363.932,208.079,350.668,204.509,329.299z"/>
			</g>
			<g>
				<g>
					<path fill="#231815" d="M238.301,311.916c4.391-11.802,13.052-26.461,27.898-23.688c6.053,1.131,10.085,6.494,13.007,11.467
						c0.914,1.554,1.717,3.17,2.608,4.736c2.346,4.127,0.98,8.593,0.845,13.04c-0.098,3.237,4.828,3.199,5,0
						c0.673-12.49,8.975-23.142,20.94-26.851c11.955-3.705,24.978,8.188,27.104,19.274c0.607,3.164,5.426,1.82,4.822-1.33
						c-2.525-13.157-16.772-25.327-30.559-23.273c-15.55,2.317-26.497,17.1-27.309,32.18c1.667,0,3.333,0,5,0
						c0.141-4.652,1.144-8.904-0.49-13.405c-0.962-2.649-2.701-5.287-4.127-7.713c-3.774-6.426-9.227-11.771-16.759-13.18
						c-17.155-3.205-27.736,13.795-32.804,27.412C232.353,313.614,237.188,314.909,238.301,311.916L238.301,311.916z"/>
				</g>
			</g>
			<g>
				<g>
					<path fill="#231815" d="M250.881,410.445c7.607,13.063,21.55,20.557,36.498,21.115c16.086,0.602,30.469-8.491,38.25-22.278
						c1.586-2.812-2.733-5.331-4.318-2.523c-7.098,12.579-19.443,19.968-33.932,19.802c-13.106-0.149-25.6-7.338-32.181-18.639
						C253.577,405.138,249.255,407.653,250.881,410.445L250.881,410.445z"/>
				</g>
			</g>
			<g>
				<g>
					<path fill="#231815" d="M406.206,287.658c-5.961,4.648-15.031,4.645-22.228,4.685c-3.224,0.018-3.225,5.018,0,5
						c8.777-0.048,18.575-0.544,25.763-6.149C412.282,289.213,408.716,285.7,406.206,287.658L406.206,287.658z"/>
				</g>
			</g>
			<g>
				<g>
					<path fill="#231815" d="M157.315,288.097c9.743,7.969,19.717,9.241,31.95,9.246c3.225,0.001,3.224-4.999,0-5
						c-10.723-0.005-19.803-0.739-28.415-7.781C158.377,282.539,154.818,286.055,157.315,288.097L157.315,288.097z"/>
				</g>
			</g>
			<g>
				<path fill="#FFFFFF" d="M162.178,239.525c6.818-1.25,10.835-3.674,17.22-5.418c8.127-2.322,14.251-3.667,22.957-3.667
					c13.353,0.581,26.962,5.411,39.731,8.312c-4.175,20.376-23.974,26.438-42.371,26.118c-14.509-0.249-33.322-6.146-40.632-24.377
					L162.178,239.525z"/>
				<g>
					<path fill="#231815" d="M162.842,241.936c5.94-1.221,11.418-3.729,17.22-5.418c6.146-1.79,12.304-3.118,18.706-3.496
						c14.417-0.851,28.808,4.915,42.653,8.141c-0.582-1.025-1.164-2.05-1.746-3.075c-4.14,18.296-21.749,24.169-38.674,24.294
						c-16.631,0.122-33.015-7.234-39.759-23.151c-0.498,1.224-0.996,2.448-1.494,3.672
						C160.779,242.581,161.811,242.258,162.842,241.936c3.067-0.958,1.757-5.786-1.329-4.821c-1.032,0.322-2.063,0.645-3.095,0.967
						c-1.684,0.526-2.13,2.17-1.494,3.672c7.688,18.144,26.678,25.755,45.365,25.619c18.725-0.139,37.736-8.197,42.207-27.957
						c0.291-1.287-0.375-2.756-1.746-3.075c-13.837-3.225-27.844-8.542-42.224-8.38c-6.245,0.07-12.396,1.238-18.42,2.801
						c-6.973,1.809-13.532,4.902-20.593,6.353C158.356,237.764,159.695,242.583,162.842,241.936z"/>
				</g>
			</g>
			<g>
				<path fill="#FFFFFF" d="M344.507,251.328c22.64-14.511,56.885-15.092,79.521-2.901c-11.024,13.349-24.377,17.413-41.791,17.413
					c-6.964,0-15.091-0.58-22.056-2.901c-7.548-2.322-9.871-6.965-16.254-11.028"/>
				<g>
					<path fill="#231815" d="M345.769,253.487c22.373-13.968,53.617-15.146,76.998-2.901c-0.169-1.309-0.337-2.618-0.506-3.926
						c-9.302,10.956-21.201,15.788-35.374,16.575c-8.161,0.454-16.51-0.076-24.414-2.201c-7.061-1.898-11.426-7.351-17.283-11.281
						c-2.686-1.802-5.186,2.531-2.523,4.317c6.426,4.312,10.859,9.419,18.478,11.785c8.176,2.54,17.266,2.706,25.743,2.38
						c15.339-0.59,28.892-6.239,38.909-18.04c0.992-1.168,1.017-3.129-0.506-3.926c-24.934-13.059-58.132-12.029-82.045,2.901
						C340.518,250.873,343.025,255.2,345.769,253.487L345.769,253.487z"/>
				</g>
			</g>
			<g>
				<path fill="#FFFFFF" d="M238.285,341.062c35.988,5.803,66.751,4.643,100.999-7.547c-4.642,17.413-30.184,32.505-47.598,34.247
					C270.208,369.503,252.216,356.153,238.285,341.062"/>
				<g>
					<path fill="#231815" d="M237.621,343.473c34.771,5.502,68.927,4.173,102.329-7.547c-1.025-1.025-2.051-2.051-3.076-3.076
						c-4.971,16.983-25.076,28.145-41.246,31.773c-21.756,4.882-41.696-10.449-55.574-25.329c-2.203-2.362-5.731,1.181-3.535,3.535
						c15.24,16.341,35.74,30.896,59.26,26.85c18.29-3.147,40.457-16.843,45.918-35.499c0.51-1.743-1.26-3.713-3.076-3.076
						c-32.52,11.411-65.792,12.908-99.669,7.547C235.796,338.152,234.443,342.97,237.621,343.473L237.621,343.473z"/>
				</g>
			</g>
		</g>
		<path fill="#FFFFFF" stroke="#231815" stroke-width="4" stroke-linecap="round" stroke-miterlimit="10" d="M254.073,354.081
			c0,0,19.395,1.616,26.667,1.616s40.406-6.465,40.406-6.465"/>
	</g>
</g>
<g id="レイヤー_5">
	<g>
		<rect fill="#FFCC99" width="602.001" height="602.647"/>

			<path fill="#CCCCCC" stroke="#231815" stroke-width="4" stroke-linecap="round" stroke-linejoin="round" stroke-miterlimit="10" d="
			M215.419,446.6c0,0-70.588,17.358-78.688,79.847c-8.1,62.486,18.997,124.002,41.496,153.708
			c18.313,24.18,21.987,30.375,21.987,30.375s-13.416,8.345-13.94,13.143c-0.525,4.794,38.352,0.456,64.101-1.859
			c25.748-2.312,43.57-0.578,46.462-8.967c2.894-8.389-12.609-35.585-12.609-35.585s13.886-11.571,20.829-11.571
			s24.301,10.414,24.301,10.414s-15.723,33.56-8.779,39.346c6.942,5.785,99.662,11.358,111.234,6.857
			c11.571-4.497-10-18.429-10-18.429s71.142-92.132,47.028-168.174c-15.043-47.446-74.06-81.006-74.06-81.006L215.419,446.6z"/>
		<g>

				<path fill="#CC3333" stroke="#231815" stroke-width="5" stroke-linecap="round" stroke-linejoin="round" stroke-miterlimit="10" d="
				M270.414,538.012c0,0,11.164-11.187,28.295-7.038c11.718,2.836,17.8,12.635,17.8,12.635s28.503,5.428,31.296,19.093
				c2.84,13.888-4.971,25.749-17.988,35.875c-13.019,10.122-37.608,14.778-48.313,5.654
				C270.8,595.104,248.428,555.081,270.414,538.012z"/>

				<path fill="#CC3333" stroke="#231815" stroke-width="5" stroke-linecap="round" stroke-linejoin="round" stroke-miterlimit="10" d="
				M310.722,555.758c0,0,8.39-21.408,13.598-22.275"/>
		</g>

			<path fill="#CCCCCC" stroke="#231815" stroke-width="6" stroke-linecap="round" stroke-linejoin="round" stroke-miterlimit="10" d="
			M182.46,460.982c0,0-107.63,8.25-81.917,102.457c20.814,76.261,80.46,83.35,131.287,71.779
			c50.828-11.571,69.424-29.353,69.424-29.353l-15.415-7.675l10.402-11.973l-12.024-0.758l1.623-11.572
			c0,0-23.317,5.088-29.326,3.435c-28.159-7.735-48.039-39.305-48.039-39.305"/>
		<g>
			<path fill="#CCCCCC" d="M149.845,160.447c47.012-40.211,92.432-55.986,130.62-55.986c40.499,0,115.715,20.829,148.116,48.601
				c8.42-18.614,40.439-43.116,63.581-30.386c37.642,20.701,18.846,54.508,3.514,85.463c14.201,16.501,20.463,32.868,27.404,58.325
				c15.044,56.701,12.962,104.758-25.223,149.89c-41.658,52.072-93.434,79.673-158.234,83.146
				c-50.917,3.472-123.702-5.109-172.305-23.626c-57.857-23.143-83.734-57.321-102.25-114.024
				c-9.257-25.458-3.168-70.639,2.618-96.098c3.472-11.572,10.416-24.3,11.57-35.873c2.317-12.73,4.631-4.628-2.313-16.2
				c-2.314-5.787-9.257-11.572-12.729-17.357c-13.887-19.674-13.598-45.19,12.243-63.883
				C114.692,104.778,149.845,160.447,149.845,160.447z"/>
			<g>
				<path fill="#231815" d="M153.381,163.982c38.3-32.558,86.237-57.714,137.793-54.103c22.296,1.562,44.462,6.886,65.749,13.504
					c21.359,6.64,42.716,15.18,61.226,27.919c2.393,1.646,4.681,3.419,6.897,5.294c2.254,1.908,6.38,2.117,7.853-1.012
					c5.525-11.74,16.095-20.86,27.449-26.758c5.75-2.987,12.135-4.716,18.619-4.659c7.464,0.066,14.236,4.297,19.74,8.998
					c22.678,19.367,2.871,51.85-7.349,72.45c-1.073,2.163-0.769,4.235,0.782,6.059c16.614,19.549,23.785,44.584,29.305,69.177
					c5.567,24.811,7.607,50.729,1.918,75.704c-5.921,25.994-20.809,47.438-38.198,67.131c-16.368,18.534-35.497,34.44-57.134,46.458
					c-43.957,24.414-94.684,27.304-143.841,23.964c-27.01-1.836-53.925-5.841-80.232-12.248
					c-23.551-5.735-46.317-13.895-66.988-26.715c-17.534-10.874-32.291-25.432-43.523-42.719
					c-5.792-8.914-10.573-18.455-14.781-28.204c-4.409-10.212-8.639-21.03-11.107-31.892c-5.256-23.12-1.816-48.902,2.261-71.94
					c0.878-4.963,1.682-10.079,3.184-14.896c2.256-7.239,5.46-14.162,7.965-21.316c2.079-5.938,2.573-12.104,4.319-18.093
					c0.89-3.052,1.835-5.04,0.323-8.165c-7.802-16.112-23.982-26.962-25.468-45.986c-1.465-18.767,14.334-37.014,32.048-41.479
					c21.543-5.43,42.873,16.026,53.338,32.514c3.445,5.427,12.102,0.415,8.635-5.047c-14.444-22.756-42.904-47.042-71.304-34.84
					c-21.105,9.068-35.318,30.854-32.146,53.817c1.511,10.939,7.674,20.861,14.646,29.154c3.968,4.72,6.797,9.663,10.193,14.751
					c0.395,0.591,0.8,1.176,1.189,1.771c0.8,1.223-0.263-1.317-0.097-1.966c-0.426,1.669-1.151,3.271-1.583,4.952
					c-1.678,6.514-2.589,12.877-4.918,19.266c-2.493,6.838-5.922,13.571-7.525,20.696c-2.467,10.967-4.211,22.095-5.533,33.253
					c-2.812,23.73-2.777,47.144,5.009,69.905c6.992,20.439,16.014,40.396,28.975,57.778c12.507,16.774,28.493,30.285,46.566,40.739
					c21.172,12.247,44.53,19.821,68.238,25.396c26.207,6.163,53.072,9.795,79.917,11.619c49.156,3.341,99.126-0.415,143.522-23.416
					c21.646-11.215,40.958-26.698,57.699-44.335c17.91-18.867,33.688-39.903,42.363-64.638c8.193-23.364,8.831-48.722,5.433-73.041
					c-3.542-25.346-9.921-52.073-22.057-74.78c-3.729-6.976-8.426-13.387-13.539-19.404c0.261,2.02,0.521,4.04,0.782,6.059
					c12.954-26.112,32.487-61.764,4.716-85.481c-13.489-11.52-29.569-13.749-45.761-6.682c-14.229,6.21-27.986,17.806-34.685,32.039
					c2.617-0.337,5.235-0.675,7.853-1.012c-16.314-13.805-36.271-22.777-56.139-30.192c-21.88-8.167-44.755-14.108-67.858-17.532
					c-20.588-3.051-40.828-2.946-61.238,1.426c-25.423,5.446-49.378,17.014-70.993,31.243c-10.34,6.807-20.151,14.428-29.579,22.441
					C141.389,161.094,148.499,168.132,153.381,163.982z"/>
			</g>
		</g>
		<g>
			<path fill="#FFFFFF" d="M159.56,289.878c6.106,14.971,35.519,14.079,53.165,6.991c11.197-4.496,40.615-25.705,37.819-38.956
				c-4.645-21.99-39.36-27.386-57.874-20.443C174.8,244.172,151.509,270.144,159.56,289.878z"/>
			<g>
				<path fill="#231815" d="M157.401,291.14c7.849,17.515,35.689,14.229,50.376,10.071c8.212-2.325,15.415-6.817,22.257-11.81
					c7.536-5.498,14.869-11.895,19.917-19.823c10.279-16.143-7.14-30.353-21.365-34.824c-18.383-5.779-37.465-2.265-52.302,9.822
					c-12.739,10.378-25.552,28.899-19.135,45.966c1.124,2.989,5.958,1.695,4.821-1.329c-7.678-20.417,15.22-44.046,33.204-49.966
					c16.13-5.31,41.984-2.125,51.059,14.005c4.784,8.504-1.316,15.842-7.162,21.887c-6.742,6.971-14.865,12.884-23.359,17.534
					c-8.654,4.738-19.096,6.457-28.85,6.631c-8.993,0.16-21.006-1.457-25.144-10.688
					C160.401,285.678,156.094,288.223,157.401,291.14z"/>
			</g>
		</g>
		<g>
			<path fill="#FFFFFF" d="M310.781,263.966c-2.717,34.33,89.117,47.445,90.258,8.1
				C402.183,232.721,313.497,229.637,310.781,263.966z"/>
			<g>
				<path fill="#231815" d="M308.281,263.966c-0.777,12.723,9.63,21.694,20.072,26.855c13.086,6.468,28.649,8.929,43.125,7.501
					c11.799-1.164,25.53-5.834,30.33-17.771c4.952-12.315-1-24.797-11.104-32.219c-13.89-10.205-33.76-12.057-50.317-9.709
					C326.27,240.627,309.829,247.991,308.281,263.966c-0.311,3.209,4.691,3.179,5,0c1.316-13.585,17.024-18.755,28.437-20.52
					c14.518-2.246,31.053-0.102,43.796,7.446c11.004,6.517,17.564,20.443,9.358,31.864c-7.866,10.947-25.669,11.603-37.676,10.662
					c-15.464-1.212-45.161-9.061-43.915-29.452C313.479,260.745,308.477,260.764,308.281,263.966z"/>
			</g>
		</g>
		<g>
			<path fill="#333333" d="M203.772,371.61c-1.558-15.811,10.018-38.938,17.49-47.184c23.592-26.032,30.092-32.672,57.759-34.168
				c30.1-1.626,52.947,16.341,69.149,32.541c13.885,13.503,30.1,50.031,10.575,77.284c-19.091,26.648-36.607,52.063-69.148,54.505
				c-38.136,2.859-47.591-19.931-59.793-32.134C212.818,405.468,205.579,389.956,203.772,371.61z"/>
		</g>
		<g>
			<g>
				<path fill="#231815" d="M235.625,341.958c6.659-8.81,14.422-18.559,26.644-14.825c5.364,1.639,9.999,5.725,13.794,9.688
					c5.39,5.629,3.977,12.448,3.827,19.52c-0.068,3.23,4.889,3.213,5,0c0.4-11.527,1.939-26.406,14.665-30.85
					c7.159-2.499,21.979-4.315,24.01,5.672c0.643,3.159,5.462,1.818,4.822-1.328c-2.646-13.002-19.438-12.262-29.32-9.431
					c-15.801,4.526-18.687,21.811-19.176,35.937c1.667,0,3.333,0,5,0c0.157-7.43,1.458-14.83-3.586-21.047
					c-4.196-5.173-9.967-10.127-16.291-12.46c-15.216-5.611-25.207,5.36-33.705,16.602
					C229.361,342.009,233.707,344.495,235.625,341.958L235.625,341.958z"/>
			</g>
		</g>
		<g>
			<g>
				<path fill="#231815" d="M230.071,450.661c27.879,29.822,81.228,32.734,105.615-2.946c1.825-2.67-2.51-5.168-4.316-2.523
					c-22.616,33.088-72.235,29.241-97.763,1.935C231.4,444.766,227.872,448.31,230.071,450.661L230.071,450.661z"/>
			</g>
		</g>
		<path fill="#231815" d="M197.166,253.853c0,3.413-2.704,6.179-6.04,6.179c-3.341,0-6.044-2.767-6.044-6.179
			c0-3.41,2.703-6.174,6.044-6.174C194.461,247.679,197.166,250.443,197.166,253.853z"/>
		<path fill="#231815" d="M374.396,254.516c0,3.41-2.705,6.174-6.039,6.174c-3.342,0-6.044-2.765-6.044-6.174
			c0-3.413,2.702-6.179,6.044-6.179C371.691,248.336,374.396,251.103,374.396,254.516z"/>

			<path fill="#CCCCCC" stroke="#231815" stroke-width="4" stroke-linecap="round" stroke-linejoin="round" stroke-miterlimit="10" d="
			M251.995,387.968c6.689-8.222,15.231-15.137,31.908-16.357c15.75-1.152,29.423,4.926,35.456,17.513
			c6.033,12.588,1.199,48.598-22.717,50.146c-23.912,1.54-29.07-2.131-38.365-15.594C248.98,410.213,245.306,396.19,251.995,387.968
			z"/>

			<path fill="#FFFFFF" stroke="#231815" stroke-width="4" stroke-linecap="round" stroke-linejoin="round" stroke-miterlimit="10" d="
			M257.058,385.848c0,0,4.301,15.856,14.609,9.643c8.575-5.169,3.288-20.219,3.288-20.219"/>

			<path fill="#FFFFFF" stroke="#231815" stroke-width="4" stroke-linecap="round" stroke-linejoin="round" stroke-miterlimit="10" d="
			M292.852,373.237c0,0-8.743,11.393-5.694,16.271c4.067,6.508,10.93,7.144,13.83,5.694c6.508-3.254,8.948-17.083,8.948-17.083
			L292.852,373.237z"/>

			<path fill="#FFFFFF" stroke="#231815" stroke-width="4" stroke-linecap="round" stroke-linejoin="round" stroke-miterlimit="10" d="
			M274.271,437.149c0,0-0.289-8.681,2.024-10.416c2.315-1.736,9.318-2.025,10.88,1.157c1.561,3.183,1.272,9.259,1.272,9.259
			S284.108,440.91,274.271,437.149z"/>

			<path fill="#996633" stroke="#231815" stroke-width="4" stroke-linecap="round" stroke-linejoin="round" stroke-miterlimit="10" d="
			M433.961,612.075"/>
		<g>

				<path fill="#CCCCCC" stroke="#231815" stroke-width="6" stroke-linecap="round" stroke-linejoin="round" stroke-miterlimit="10" d="
				M381.334,592.676c0,0,10.582-41.451,4.024-59.193c-4.972-13.456-14.853-52.484-10.413-65.899
				c6.943-20.983,26.891-27.016,26.891-27.016s-10.222-28.076,1.928-32.392c12.151-4.314,24.308,17.835,24.308,17.835l20.975,36.714
				c0,0,42.304,0,60.2,47.184c12.429,32.766-23.212,75.001-23.212,75.001s-23.062,43.883-50.064,43.754
				C374.441,628.359,381.334,592.676,381.334,592.676z"/>

				<path fill="#CCCCCC" stroke="#231815" stroke-width="5" stroke-linecap="round" stroke-linejoin="round" stroke-miterlimit="10" d="
				M451.049,550.852c0,0,13.318-40.281,8.189-60.336c-5.128-20.062-13.778-32.868-13.778-32.868"/>
		</g>
		<g>
			<g>
				<path fill="#231815" d="M398.875,306.39c-4.916,3.975-12.554,5.355-18.612,6.138c-11.928,1.541-24.026-0.722-34.897-5.717
					c-2.908-1.336-5.45,2.973-2.523,4.318c11.827,5.434,24.446,7.789,37.421,6.398c7.503-0.803,16.134-2.74,22.147-7.603
					C404.919,307.896,401.357,304.382,398.875,306.39L398.875,306.39z"/>
			</g>
		</g>
		<g>
			<g>
				<path fill="#231815" d="M151.974,318.873c8.836,7.074,22.95,6.957,33.593,6.105c16.207-1.297,32.409-7.066,44.378-18.309
					c2.355-2.211-1.188-5.74-3.535-3.535c-10.76,10.105-25.124,15.157-39.617,16.729c-9.22,1-23.486,1.717-31.284-4.525
					C153.019,313.344,149.456,316.857,151.974,318.873L151.974,318.873z"/>
			</g>
		</g>
	</g>
</g>
<g id="レイヤー_1" display="none">
	<g display="inline">
		<rect x="-0.481" y="-0.153" fill="#F8C797" width="600.941" height="600.072"/>

			<path fill="#CBCBCB" stroke="#221714" stroke-width="6" stroke-linecap="round" stroke-linejoin="round" stroke-miterlimit="10" d="
			M116.566,376.017c0,0-105.534,31.465-82.877,103.659c23.941,76.311,81.403,84.332,132.826,72.624
			c51.423-11.709,83.782-23.419,83.782-23.419l-15.596-7.77l10.522-12.106l-12.167-0.769l1.645-11.708
			c0,0-37.132-1.128-43.215-2.801c-28.491-7.834-48.603-39.774-48.603-39.774"/>

			<path fill="#CBCBCB" stroke="#221714" stroke-width="7" stroke-linecap="round" stroke-linejoin="round" stroke-miterlimit="10" d="
			M194.072,408.017c0,0-71.417,17.564-79.611,80.785c-8.198,63.216,19.218,125.453,41.979,155.511
			c18.527,24.462,22.246,30.735,22.246,30.735s-13.573,8.439-14.104,13.291c-0.531,4.854,38.803,0.463,64.853-1.881
			c26.048-2.338,44.082-0.583,47.011-9.071c2.925-8.489-12.761-36-12.761-36s14.049-11.709,21.071-11.709
			c7.023,0,24.587,10.537,24.587,10.537s-15.904,33.952-8.88,39.805c7.022,5.855,100.832,11.491,112.535,6.942
			c11.711-4.556-10.114-18.65-10.114-18.65s71.976-93.21,47.581-170.145c-15.217-48.004-74.927-81.951-74.927-81.951
			L194.072,408.017z"/>
		<g>
			<g>
				<path fill="#CBCBCB" d="M126.336,116.205c26.537-38.709,118.71-54.85,158.521-54.85c42.22,0,116.584,20.012,150.363,50.978
					c8.776-20.753,33.803-40.025,57.917-25.811c29.561,17.421,15.471,42.739-0.513,77.253c14.802,18.398,21.33,36.649,28.567,65.034
					c15.685,63.226,15.028,126.943-24.776,177.263c-43.429,58.064-98.922,78.705-166.474,82.577
					c-53.081,3.869-128.959-5.704-179.622-26.345c-60.317-25.806-86.975-73.005-106.279-136.229
					c-9.649-28.389-3.616-69.675,2.414-98.06c3.619-12.904,6.214-28.642,12.065-39.999c5.684-11.033,11.712-8.577,4.471-21.479
					c-2.412-6.451-7.842-12.263-11.461-18.714c-14.477-21.936-6.501-41.78,10.859-55.493
					C96.097,65.703,126.336,116.205,126.336,116.205z"/>
				<g>
					<path fill="#221714" d="M130.654,118.729c10.385-14.846,28.183-23.893,44.519-30.565c19.796-8.085,40.783-13.3,61.799-17.036
						c17.144-3.047,34.734-5.164,52.175-4.708c21.996,0.575,43.967,5.261,65.047,11.309c27.222,7.811,56.191,18.861,77.49,38.139
						c2.156,1.952,6.486,2.096,7.853-1.012c5.078-11.555,14.081-21.847,26.112-26.358c12.764-4.786,26.291,0.552,34.931,10.499
						c6.297,7.25,5.26,17.315,2.955,25.888c-3.404,12.665-9.735,24.528-15.229,36.367c-1.046,2.253-0.746,4.139,0.782,6.059
						c15.652,19.677,22.796,43.755,28.495,67.864c6.424,27.172,9.667,55.197,7.409,83.097c-2.188,27.049-10.873,53.18-25.943,75.773
						c-14.029,21.034-32.173,39.965-52.993,54.327c-39.345,27.143-87.512,35.212-134.425,36.069
						c-26.468,0.482-53.048-1.736-79.189-5.803c-25.665-3.992-51.223-9.924-75.557-19.096
						c-21.325-8.037-40.847-20.853-56.744-37.155c-15.271-15.661-26.554-34.669-35.516-54.507
						c-9.818-21.733-19.096-45.856-20.443-69.826c-1.475-26.244,3.268-52.639,9.487-78.009c2.745-11.197,4.909-23.436,11.378-33.2
						c1.957-2.953,4.418-5.161,5.802-8.49c1.714-4.125-0.865-9.168-2.672-12.744c-5.609-11.102-14.743-20.792-18.169-32.892
						c-3.196-11.287,1.515-22.306,9.087-30.614c6.13-6.725,14.148-12.298,23.497-12.529c7.503-0.185,14.432,3.542,20.327,7.83
						c7.564,5.5,14.271,13.305,19.099,21.321c3.322,5.515,11.971,0.492,8.635-5.047c-5.79-9.612-13.751-18.186-22.687-24.909
						c-6.828-5.137-14.823-8.456-23.357-9.139c-10.125-0.81-19.352,3.978-26.982,10.15c-9.237,7.471-16.486,18.077-18.191,29.977
						c-1.942,13.558,4.038,25.505,11.488,36.396c3.748,5.478,7.433,10.989,9.889,17.198c1.311,3.314-2.544,5.864-4.401,8.444
						c-7.532,10.462-9.776,24.941-12.776,37.179c-6.188,25.244-10.457,51.414-9.527,77.491c0.867,24.309,9.753,47.949,19.142,70.149
						c8.577,20.281,19.411,39.437,33.764,56.211c14.503,16.949,32.773,30.369,52.761,40.142
						c22.62,11.06,47.729,17.341,72.321,22.196c26.317,5.196,53.143,8.206,79.95,9.107c47.091,1.584,96.344-3.779,138.862-25.277
						c21.261-10.749,40.121-25.895,56.062-43.527c18.042-19.961,32.544-42.504,40.663-68.269c8.091-25.677,9.406-53.188,7.02-79.851
						c-2.429-27.13-8.326-54.688-17.759-80.261c-4.951-13.421-11.834-25.659-20.735-36.849c0.261,2.02,0.521,4.04,0.782,6.059
						c10.338-22.279,29.831-53.969,9.163-76.089c-10.622-11.368-26.859-16.143-41.759-11.806
						c-15.02,4.372-27.284,17.391-33.443,31.405c2.617-0.337,5.235-0.675,7.853-1.012c-16.34-14.79-36.628-24.543-57.025-32.401
						c-22.007-8.478-45.143-14.417-68.482-17.755c-38.04-5.44-77.198,0.475-113.957,10.802
						c-27.756,7.798-60.045,19.615-77.271,44.239C118.312,118.98,126.987,123.97,130.654,118.729z"/>
				</g>
			</g>
			<g>
				<path fill="#323333" d="M180.046,345.994c-1.563-8.718,3.351-28.39,9.785-38.714c6.836-9.891,15.492-19.194,25.144-26.079
					c15.682-12.041,33.631-14.235,53.337-14.669c24.126-0.427,55.492,10.459,72.382,28.523
					c14.478,15.056,29.147,39.761,13.865,65.567c-14.071,23.226-35.384,32.26-60.312,37.414c-22.118,4.729-55.09,5.592-74.793-9.459
					C204.976,377.396,184.058,368.362,180.046,345.994z"/>
			</g>
			<g>
				<g>
					<path fill="#221714" d="M214.732,322.775c3.647-7.911,6.429-16.352,11.372-23.591c4.484-6.568,13.821-11.062,20.835-6.004
						c6.172,4.451,12.047,11.181,16.06,17.629c4.242,6.815,2.83,18.109,2.821,25.808c-0.005,4.209,6.32,4.169,6.5,0
						c0.362-8.415,3.155-16.908,6.522-24.562c3.164-7.192,8.136-17.041,16.238-19.569c15.393-4.803,30.208,11.273,32.573,25.439
						c0.689,4.127,6.952,2.371,6.268-1.729c-2.924-17.512-19.972-33.233-38.002-30.554c-10.217,1.519-16.667,11.231-21.047,19.69
						c-4.918,9.498-8.589,20.537-9.052,31.285c2.167,0,4.333,0,6.5,0c0.011-9.176,1.038-20.822-3.708-29.088
						c-4.494-7.828-11.909-15.287-19.176-20.527c-7.609-5.487-18.514-1.666-24.857,4.054c-7.986,7.202-11.102,18.987-15.459,28.438
						C207.378,323.273,212.979,326.578,214.732,322.775L214.732,322.775z"/>
				</g>
			</g>
			<g>
				<g>
					<path fill="#221714" d="M205.067,413.214c9.47,0.62,18.334,4.121,26.163,9.396c3.018,2.033,5.871,4.6,8.026,7.544
						c1.592,2.175,2.268,4.674,4.091,6.713c3.847,4.304,10.693,5.998,16.093,7.054c6.402,1.252,13.24,1.573,19.637,0.147
						c9.353-2.085,14.769-9.425,20.178-16.633c7.82-10.422,18.442-11.128,30.668-8.633c4.092,0.835,5.834-5.43,1.729-6.268
						c-11.71-2.39-23.995-2.771-33.19,5.933c-6.419,6.076-9.717,15.122-18.462,18.524c-5.851,2.276-12.784,1.703-18.831,0.661
						c-6.527-1.126-12.18-2.969-15.217-9.032c-3.055-6.099-9.514-10.607-15.187-14.002c-7.766-4.647-16.693-7.315-25.697-7.905
						C200.88,406.439,200.907,412.941,205.067,413.214L205.067,413.214z"/>
				</g>
			</g>
		</g>
		<g>
			<path fill="#F0EA4D" d="M148.47,225.18c43.434,12.1,75.562,7.764,103.163,6.787c-10.859,18.39-39.504,29.167-59.729,29.942
				c-14.93,0.571-21.264-5.023-30.313-10.83C149.825,244.302,151.183,238.73,148.47,225.18"/>
			<g>
				<path fill="#221714" d="M147.473,228.796c18.636,5.108,37.706,7.885,57.019,8.4c15.737,0.419,31.428-0.897,47.141-1.479
					c-1.08-1.881-2.159-3.762-3.238-5.643c-10.964,17.862-35.285,26.721-55.315,28.029c-11.884,0.775-20.036-4.07-29.597-10.262
					c-3.951-2.559-7.183-4.878-8.682-9.513c-1.466-4.531-1.811-9.484-2.714-14.146c-0.92-4.745-8.148-2.73-7.232,1.994
					c1.025,5.289,1.437,10.849,3.334,15.923c1.74,4.654,5.106,7.931,9.104,10.727c10.165,7.11,20.156,12.737,32.861,12.871
					c23.351,0.245,52.173-11.401,64.718-31.839c1.457-2.373-0.411-5.748-3.238-5.643c-14.725,0.546-29.411,1.681-44.157,1.534
					c-19.655-0.196-39.058-2.992-58.009-8.187C144.794,220.283,142.814,227.519,147.473,228.796L147.473,228.796z"/>
			</g>
		</g>
		<g>
			<path fill="#F0EA4D" d="M300.045,234.375c35.293,6.776,79.049,1.462,114.343-2.409c-10.727,16.444-27.005,38.208-50.09,38.223
				C338.053,270.204,315.43,249.862,300.045,234.375"/>
			<g>
				<path fill="#221714" d="M299.048,237.991c38.041,7.085,77.271,1.907,115.34-2.275c-1.079-1.881-2.159-3.762-3.238-5.643
					c-11.134,16.996-25.997,36.675-48.422,36.342c-23.923-0.355-44.147-18.755-60.031-34.692c-3.417-3.429-8.72,1.875-5.303,5.304
					c17.786,17.845,38.977,35.691,65.334,36.889c25.08,1.14,42.56-21.222,54.898-40.057c1.456-2.223-0.422-5.952-3.238-5.643
					c-37.292,4.097-76.073,9.485-113.346,2.542C296.315,229.878,294.297,237.106,299.048,237.991L299.048,237.991z"/>
			</g>
		</g>
		<g>
			<g>
				<path fill="#221714" d="M166.608,185.726c9.866,2.391,17.558-0.159,25.688-5.733c3.166-2.171,6.01-3.92,9.954-3.785
					c5.57,0.191,10.115,4.336,13.509,8.329c5.719,6.726,8.192,14.964,15.731,20.188c9.087,6.297,21.627,4.92,31.864,3.263
					c4.13-0.668,2.372-6.932-1.728-6.268c-10.542,1.707-22.566,2.568-30.54-5.833c-2.679-2.822-4.347-6.697-6.402-9.972
					c-2.327-3.708-5.068-7.182-8.335-10.102c-6.297-5.629-14.984-7.876-22.775-4.234c-3.337,1.56-6.219,4.061-9.375,5.944
					c-4.995,2.982-10.28,3.288-15.863,1.936C164.263,178.471,162.536,184.739,166.608,185.726L166.608,185.726z"/>
			</g>
		</g>
		<g>
			<g>
				<path fill="#221714" d="M380.997,188.169c-9.776-3.82-19.992-6.074-30.494-6.417c-8.127-0.265-17.902,0.595-24.762,5.38
					c-5.44,3.794-9.906,8.944-14.593,13.585c-1.995,1.976-9.653,10.737-12.877,7.645c-3.023-2.9-7.626,1.69-4.596,4.597
					c9.617,9.224,23.195-8.871,29.177-14.753c2.366-2.327,4.804-4.614,7.597-6.421c3.723-2.409,8.969-2.899,13.247-3.322
					c12.083-1.196,24.373,1.599,35.572,5.975C383.178,195.965,384.855,189.677,380.997,188.169L380.997,188.169z"/>
			</g>
		</g>
		<g>
			<g>
				<path fill="#221714" d="M269.31,183.456c1.672,7.694,1.69,15.496,1.693,23.333c0.001,4.191,6.501,4.192,6.5,0
					c-0.003-8.426-0.128-16.794-1.925-25.061C274.688,177.632,268.422,179.37,269.31,183.456L269.31,183.456z"/>
			</g>
		</g>
		<g>
			<g>
				<path fill="#221714" d="M284.694,188.294c0.653,4-0.164,7.901-0.903,11.825c-0.772,4.096,5.491,5.844,6.268,1.728
					c0.975-5.169,1.761-10.033,0.903-15.28C290.288,182.438,284.024,184.195,284.694,188.294L284.694,188.294z"/>
			</g>
		</g>
		<g>
			<path fill="#FFFFFF" d="M208.956,379.59c11.766,0,24.437-0.97,36.197-4.84c11.765-3.874,19.005-11.617,30.77-9.678
				c9.049,1.933,19.908,8.708,30.767,10.643c10.86,1.937,22.625,1.937,33.483,3.875c-22.623,4.84-43.438,22.262-66.059,24.195
				c-26.246,1.938-41.629-14.52-64.253-24.195"/>
			<g>
				<path fill="#221714" d="M208.956,382.84c11.303-0.048,22.553-0.972,33.507-3.88c9.863-2.619,18.63-10.152,28.875-10.926
					c5.259-0.396,10.594,2.235,15.331,4.196c5.24,2.168,10.421,4.39,15.899,5.902c11.854,3.274,24.655,2.559,36.739,4.591
					c0-2.089,0-4.179,0-6.268c-23.133,5.253-42.804,22.745-66.855,24.178c-23.025,1.372-41.033-15.149-60.952-23.851
					c-3.801-1.66-7.114,3.938-3.28,5.613c20.4,8.91,37.764,24.17,60.996,24.791c26.023,0.696,47.276-18.891,71.82-24.464
					c3.015-0.685,3.208-5.728,0-6.268c-12.156-2.045-24.737-1.71-36.739-4.591c-10.292-2.471-19.384-8.87-29.952-10.249
					c-9.785-1.276-18.429,5.264-26.953,8.857c-11.96,5.042-25.625,5.812-38.436,5.866
					C204.765,376.357,204.763,382.857,208.956,382.84L208.956,382.84z"/>
			</g>
		</g>
		<g>
			<path fill="#CBCBCB" stroke="#221714" stroke-width="5" stroke-miterlimit="10" d="M553.557,504.89
				c2.418-16.961,2.872-57.566,0.653-74.894c-2.08-16.229-30.974-59.039-63.29-20.686c-8.754,10.388,9.45,101.252,4.132,100.245
				c-31.294-5.921-22.183-188.718-74.732-165.427c-40.484,17.945-21.667,52.475-18.155,69.29
				c3.507,16.817,28.346,133.684,39.086,145.457c10.738,11.77,46.896,19.03,74.318,8.476
				C542.986,556.8,550.4,527.015,553.557,504.89z"/>
			<g>
				<path fill="#CBCBCB" stroke="#221714" stroke-width="2" stroke-miterlimit="10" d="M387.993,340.58
					c-20.884,16.119-13.701,39.71-21.812,60.822c-2.293,5.964-7.103,15.43-11.43,21.208c-9.915,13.238-16.663,24.546-11.325,40.252
					c12.071,35.541,31.625-10.733,35.271-23.739c6.499-23.146,19.75-32.656,27.853-29.133c8.104,3.52,18.7,136.776,22.313,143.559
					c16.49,30.933,40.721,17.203,39.559-9.561c-0.553-12.734-36.657-111.773-24.199-114.371
					c13.692-2.861,42.714,86.459,63.368,106.379c18.168,17.526,53.929,4.084,48.397-20.229
					c-3.503-15.415-98.793-103.973-75.782-105.132c14.115-0.711,38.054,36.977,69.697,40.603
					c30.765,3.522,35.321-16.993,7.892-37.709c-22.759-17.184-65.029-31.737-69.173-35.479c-4.143-3.737-1.22-10.371,5.058-13.099
					c12.414-5.393,37.592-7.45,47.546-8.66c14.667-1.783,32.513-2.061,31.914-17.962c-0.596-15.843-22.538-9.325-53.168-3.552
					c-41.542,7.831-52.853-11.561-72.316-2.157C424.48,343.819,415.312,319.482,387.993,340.58z"/>
				<path fill="#989898" d="M406.55,409.99c8.104,3.52,18.7,136.776,22.313,143.559c16.49,30.933,40.721,17.203,39.559-9.561
					c-0.553-12.734-36.657-111.773-24.199-114.371c13.692-2.861,42.714,86.459,63.368,106.379
					c18.168,17.526,53.929,4.084,48.397-20.229c-3.503-15.415-98.793-103.973-75.782-105.132
					c14.115-0.711,38.054,36.977,69.697,40.603c30.765,3.522,35.321-16.993,7.892-37.709
					c-22.759-17.184-65.029-31.737-69.173-35.479c-4.143-3.737-1.22-10.371,5.058-13.099c12.414-5.393,37.592-7.45,47.546-8.66
					c14.667-1.783,32.513-2.061,31.914-17.962c-0.596-15.843-22.573-9.495-53.168-3.552c-25.275,4.906-35.286-2.751-39.432,32.404
					C470.815,449.642,441.234,419.615,406.55,409.99z"/>
				<path fill="#211613" d="M438.645,391.78c3.588-7.113-0.246-31.718,3.108-32.779c3.35-1.065,19.653,32.365-3.966,48.787
					c-6.377,4.435-24.256,12.054-23.601,8.73C414.838,413.193,435.056,398.891,438.645,391.78z"/>
				<path fill="none" stroke="#221714" stroke-width="6" stroke-miterlimit="10" d="M387.993,340.58
					c-20.884,16.119-13.701,39.71-21.812,60.822c-2.293,5.964-7.103,15.43-11.43,21.208c-9.915,13.238-16.663,24.546-11.325,40.252
					c12.071,35.541,31.625-10.733,35.271-23.739c6.499-23.146,19.75-32.656,27.853-29.133c8.104,3.52,18.7,136.776,22.313,143.559
					c16.49,30.933,40.721,17.203,39.559-9.561c-0.553-12.734-36.657-111.773-24.199-114.371
					c13.692-2.861,42.714,86.459,63.368,106.379c18.168,17.526,53.929,4.084,48.397-20.229
					c-3.503-15.415-98.793-103.973-75.782-105.132c14.115-0.711,38.054,36.977,69.697,40.603
					c30.765,3.522,35.321-16.993,7.892-37.709c-22.759-17.184-65.029-31.737-69.173-35.479c-4.143-3.737-1.22-10.371,5.058-13.099
					c12.414-5.393,37.592-7.45,47.546-8.66c14.667-1.783,32.513-2.061,31.914-17.962c-0.596-15.843-22.538-9.325-53.168-3.552
					c-41.542,7.831-52.853-11.561-72.316-2.157C424.48,343.819,415.312,319.482,387.993,340.58z"/>
			</g>
		</g>
	</g>
</g>
</svg>
