<?xml version="1.0" encoding="utf-8"?>
<!-- Generator: Adobe Illustrator 16.0.4, SVG Export Plug-In . SVG Version: 6.00 Build 0)  -->
<!DOCTYPE svg PUBLIC "-//W3C//DTD SVG 1.1//EN" "http://www.w3.org/Graphics/SVG/1.1/DTD/svg11.dtd">
<svg version="1.1" xmlns="http://www.w3.org/2000/svg" xmlns:xlink="http://www.w3.org/1999/xlink" x="0px" y="0px" width="600px"
	 height="600px" viewBox="0 0 600 600" enable-background="new 0 0 600 600" xml:space="preserve">
<g id="レイヤー_2" display="none">
	<g display="inline">
		<rect x="1.772" fill="#FFCC99" width="598.228" height="602.763"/>

			<path fill="#CCCCCC" stroke="#231815" stroke-width="6" stroke-linecap="round" stroke-linejoin="round" stroke-miterlimit="10" d="
			M196.112,424.267c0,0-72.264,17.771-80.557,81.742c-8.294,63.97,19.448,126.946,42.479,157.358
			c18.747,24.754,22.511,31.1,22.511,31.1s-13.734,8.543-14.271,13.452c-0.538,4.91,39.263,0.467,65.623-1.904
			c26.357-2.366,44.603-0.591,47.565-9.181c2.962-8.591-12.91-36.427-12.91-36.427s14.217-11.848,21.322-11.848
			c7.108,0,24.88,10.664,24.88,10.664s-16.095,34.354-8.987,40.274c7.107,5.926,102.028,11.629,113.873,7.024
			c11.848-4.608-10.235-18.87-10.235-18.87s72.828-94.315,48.146-172.164c-15.399-48.572-75.817-82.925-75.817-82.925
			L196.112,424.267z"/>

			<path fill="#CCCCCC" stroke="#231815" stroke-width="6" stroke-linecap="round" stroke-linejoin="round" stroke-miterlimit="10" d="
			M402.262,477.858c5.714,9.043,7.054,15.72,4.715,25.021c-3.258,12.967-40.099,3.356-55.687,4.852
			c2.007,4.53,15.456,12.354,19.621,16.358c-5.794-1.333-15.494-0.166-21.729,0.432c0.822,5.271,8.654,9.868,12.817,13.874
			c-9.354,0.897-9.354,0.897-17.134,2.094l-13.372,4.604c5.349,3.269,41.113,12.068,46.462,15.331
			c40.465,18.456,108.549,36.152,138.651-10.781c13.796-20.196,6.854-44.399,3.298-67.331
			c-6.962-44.915-66.331-65.052-85.932-72.609"/>

			<path fill="#CCCCCC" stroke="#231815" stroke-width="6" stroke-linecap="round" stroke-linejoin="round" stroke-miterlimit="10" d="
			M133.373,405.732c0,0-106.787,31.835-83.861,104.889c24.227,77.216,82.37,85.333,134.404,73.484
			c52.033-11.848,84.775-23.694,84.775-23.694l-15.78-7.862l10.647-12.251l-12.312-0.779l1.664-11.845
			c0,0-37.572-1.144-43.727-2.836c-28.83-7.926-49.18-40.244-49.18-40.244"/>
		<g>
			<path fill="#CCCCCC" d="M153.482,146.637c25.404-34.643,92.239-55.871,130.348-55.871c40.417,0,115.478,20.787,147.812,48.5
				c8.403-18.575,37.971-47.505,61.064-34.802c37.562,20.659,21.191,58.875,5.891,89.765c14.171,16.467,20.421,32.801,27.35,58.207
				c15.013,56.585,14.386,113.609-23.72,158.646c-41.573,51.965-94.693,70.441-159.361,73.905
				c-50.81,3.465-123.446-5.102-171.946-23.579C113.18,438.313,87.66,396.07,69.184,339.484c-9.239-25.403-3.465-62.356,2.31-87.762
				c3.464-11.548,10.393-24.25,11.548-35.799c2.308-12.702,4.619-4.619-2.311-16.166c-2.31-5.774-9.237-11.547-12.702-17.322
				c-13.857-19.631-15.589-53.409,11.548-70.441C122.277,85.19,153.482,146.637,153.482,146.637z"/>
			<g>
				<path fill="#231815" d="M157.8,149.161c12.893-17.273,33.363-28.593,52.861-36.788c20.081-8.439,41.806-14.406,63.552-16.207
					c19.985-1.654,40.249,1.904,59.661,6.355c22.973,5.267,45.719,12.698,66.893,23.107c9.636,4.737,19.121,10.219,27.34,17.173
					c2.247,1.902,6.391,2.123,7.853-1.012c5.691-12.204,15.646-22.813,27.069-29.838c5.544-3.409,11.746-5.669,18.302-5.597
					c7.388,0.082,14.271,5.18,19.39,10.053c21.281,20.258,4.034,54.104-6.44,75.298c-1.07,2.165-0.77,4.233,0.782,6.059
					c16.607,19.542,23.784,44.595,29.269,69.187c5.905,26.48,8.022,54.261,2.793,81.032c-9.786,50.088-49.909,91.563-95.267,112.506
					c-44.298,20.452-96.405,22.361-144.309,19.105c-26.953-1.832-53.811-5.829-80.063-12.224
					c-23.68-5.768-46.545-13.812-66.811-27.608c-17.935-12.211-32.24-28.824-43.252-47.4c-5.699-9.613-10.492-19.768-14.697-30.113
					c-4.428-10.891-8.917-22.253-11.435-33.756c-2.804-12.81-2.259-26.363-1.061-39.332c1.149-12.436,2.852-25.732,6.579-37.691
					c2.078-6.667,4.98-13.067,7.371-19.623c2.361-6.475,2.98-13.157,4.887-19.705c0.823-2.825,1.891-4.912,0.48-7.826
					c-1.969-4.066-4.812-8.367-7.421-12.032c-5.818-8.174-12.542-14.756-16-24.408c-2.933-8.184-3.733-17.152-2.063-25.69
					c3.434-17.559,19.865-32.092,38.004-31.954c20.937,0.16,38.365,21.82,47.1,38.927c2.933,5.745,11.561,0.684,8.635-5.047
					c-11.092-21.725-33.34-45.829-59.799-43.734c-21.141,1.673-39.068,18.841-43.583,39.149c-2.192,9.859-1.301,20.306,1.69,29.891
					c3.449,11.055,10.476,18.93,17.382,27.912c2.726,3.545,4.962,7.837,7.261,11.702c-1.065-1.791-0.061-3.167-1.066-0.354
					c-1.052,2.944-1.419,6.025-1.917,9.09c-2.213,13.641-9.735,25.891-12.581,39.436c-5.223,24.867-8.861,51.742-2.89,76.794
					c2.713,11.383,7.381,22.664,11.83,33.464c4.239,10.291,9.047,20.33,14.659,29.945c10.896,18.668,25.188,34.917,42.485,47.876
					c19.209,14.392,41.64,23.094,64.611,29.412c25.725,7.076,52.268,11.277,78.799,13.837c48.571,4.688,100.496,3.56,146.857-13.111
					c22.119-7.954,42.394-19.972,60.102-35.409c19.497-16.996,36.865-38.354,46.843-62.339
					c10.21-24.545,12.949-51.262,10.937-77.618c-2.034-26.644-8.167-54.155-18.487-78.837c-4.678-11.188-10.95-21.29-18.801-30.527
					c0.261,2.02,0.521,4.04,0.782,6.059c13.384-27.079,30.19-64.777,2.932-89.213c-6.142-5.506-13.855-10.179-22.193-11.007
					c-8.261-0.82-16.183,1.707-23.428,5.505c-13.823,7.248-26.312,20.576-32.9,34.705c2.617-0.337,5.235-0.675,7.853-1.012
					c-16.282-13.777-36.199-22.731-56.027-30.132c-21.835-8.15-44.663-14.08-67.719-17.497c-19.494-2.889-38.292-2.751-57.682,0.875
					c-22.413,4.191-44.43,11.9-64.565,22.588c-15.268,8.104-29.614,18.608-40.019,32.548
					C145.303,149.288,153.991,154.264,157.8,149.161z"/>
			</g>
		</g>
		<g>
			<g>
				<path fill="#333333" d="M211.823,345.978c0-17.044,8.246-34.086,13.194-40.683c6.288-8.385,16.494-17.224,25.288-23.09
					c14.291-10.258,27.129-11.539,45.079-10.995c18.142,0.549,38.864,4.68,58.824,21.991c13.899,12.055,28.037,35.732,15.943,63.77
					c-9.338,21.648-24.739,58.275-68.72,59.374c-32.444,0.81-52.898-8.25-72.019-30.785
					C214.021,367.418,211.823,359.896,211.823,345.978z"/>
			</g>
			<g>
				<g>
					<path fill="#231815" d="M246.417,320.851c3.715-5.557,6.593-12.147,11.224-17.018c4.627-4.866,12.804-2.752,18.063-0.169
						c6.737,3.309,11.841,7.648,13.769,14.955c1.714,6.499,2.768,13.483,2.864,20.21c0.046,3.231,4.887,3.215,5,0
						c0.397-11.321,1.414-26.625,9.753-35.211c9.408-9.689,29.808,3.471,32.064,14.436c0.65,3.156,5.47,1.817,4.822-1.33
						c-1.412-6.856-7.728-12.516-13.226-16.264c-6.767-4.611-16.157-6.627-23.753-2.945c-6.511,3.156-9.543,11.519-11.394,17.95
						c-2.167,7.53-2.993,15.555-3.267,23.364c1.667,0,3.333,0,5,0c-0.112-7.871-1.455-16.097-3.623-23.649
						c-2.275-7.927-9.504-12.896-16.6-16.38c-6.124-3.007-14.56-4.327-20.591-0.498c-6.688,4.246-10.19,13.694-14.423,20.025
						C240.301,321.016,244.634,323.517,246.417,320.851L246.417,320.851z"/>
				</g>
			</g>
			<g>
				<g>
					<path fill="#231815" d="M225.94,424.769c15.653,17.021,38.103,26.834,60.924,28.999c27.436,2.602,53.668-8.729,72.47-28.448
						c3.336-3.498-1.96-8.81-5.303-5.303c-17.768,18.634-41.408,28.326-67.167,26.251c-20.771-1.674-41.5-11.448-55.621-26.802
						C227.963,415.898,222.673,421.216,225.94,424.769L225.94,424.769z"/>
				</g>
			</g>
			<g>
				<g>
					<path fill="#231815" d="M421.163,284.192c-11.775,4.595-24.157,6.284-36.619,3.724c-15.377-3.159-28.375-12.835-39.013-23.971
						c-2.23-2.336-5.761,1.205-3.535,3.535c11.05,11.569,24.199,20.981,39.877,24.95c13.522,3.423,27.758,1.603,40.62-3.417
						C425.462,287.854,424.171,283.018,421.163,284.192L421.163,284.192z"/>
				</g>
			</g>
			<g>
				<g>
					<path fill="#231815" d="M169.33,281.615c12.796,8.531,28.477,13.418,43.913,11.248c15.64-2.199,28.448-11.289,36.473-24.789
						c1.651-2.778-2.672-5.292-4.317-2.523c-16.026,26.96-49.235,27.953-73.544,11.747
						C169.162,275.503,166.662,279.836,169.33,281.615L169.33,281.615z"/>
				</g>
			</g>
		</g>
		<g>
			<path fill="#FFFFFF" d="M168.391,256.366c23.642-14.294,40.684-21.989,75.317,0c-9.896,14.844-24.189,17.043-38.481,17.043
				C187.634,273.409,181.035,266.812,168.391,256.366"/>
			<g>
				<path fill="#231815" d="M169.652,258.525c9.99-6.021,20.431-12.125,32.275-13.265c14.617-1.407,28.525,5.754,40.519,13.265
					c-0.299-1.14-0.598-2.28-0.897-3.42c-8.698,12.515-21.829,15.729-36.323,15.805c-6.895,0.036-13.459-1.246-19.535-4.553
					c-5.695-3.099-10.571-7.646-15.533-11.757c-2.462-2.041-6.021,1.476-3.535,3.535c5.628,4.664,11.143,9.6,17.596,13.112
					c6.457,3.513,13.75,4.574,21.008,4.664c16.334,0.201,31.011-4.427,40.64-18.281c0.795-1.145,0.188-2.741-0.897-3.42
					c-12.93-8.097-27.405-15.046-43.042-13.948c-12.706,0.893-24.139,7.523-34.798,13.948
					C164.372,255.869,166.883,260.194,169.652,258.525L169.652,258.525z"/>
			</g>
		</g>
		<g>
			<path fill="#FFFFFF" d="M350.907,255.817c27.486-13.194,46.731-19.792,77.515,0C402.034,278.906,378.394,272.859,350.907,255.817
				"/>
			<g>
				<path fill="#231815" d="M352.169,257.976c11.294-5.4,22.981-10.807,35.6-11.979c14.291-1.328,27.571,4.513,39.392,11.979
					c-0.169-1.309-0.338-2.618-0.506-3.926c-10.498,8.988-22.52,14.95-36.578,14.317c-13.666-0.615-26.529-7.72-37.907-14.708
					c-2.756-1.692-5.266,2.634-2.523,4.317c12.407,7.62,25.69,14.294,40.431,15.391c15.196,1.13,28.901-6.182,40.113-15.782
					c1.271-1.087,0.77-3.121-0.506-3.926c-12.328-7.788-25.787-13.388-40.596-12.752c-13.934,0.599-27.08,6.841-39.442,12.752
					C346.737,255.049,349.275,259.359,352.169,257.976L352.169,257.976z"/>
			</g>
		</g>
		<g>
			<g>
				<path fill="#231815" d="M194.349,209.205c12.16-10.198,35.539-4.782,43.903,8.291c1.731,2.707,6.061,0.201,4.317-2.523
					c-10.213-15.963-37.037-21.647-51.755-9.302C188.34,207.744,191.896,211.262,194.349,209.205L194.349,209.205z"/>
			</g>
		</g>
		<g>
			<g>
				<path fill="#231815" d="M407.649,204.671c-6.817-7.643-17.577-9.457-27.326-7.922c-8.453,1.331-19.228,5.025-23.329,13.276
					c-1.43,2.877,2.883,5.411,4.318,2.523c3.202-6.441,11.514-9.192,18.049-10.585c8.649-1.844,18.621-0.631,24.753,6.243
					C406.265,210.618,409.788,207.069,407.649,204.671L407.649,204.671z"/>
			</g>
		</g>
		<g>
			<path fill="#FFFFFF" d="M245.903,353.123c0,0,29.115,15.774,52.78,17.593c14.294,1.099,47.828-13.194,47.828-13.194
				s-2.922,13.726-4.947,17.042c-6.047,9.896-11.545,18.691-24.188,21.99c-14.713,3.838-33.871,3.15-47.279-3.849
				C257.453,386.107,239.855,375.362,245.903,353.123"/>
			<g>
				<path fill="#231815" d="M244.642,355.281c6.243,3.367,12.783,6.216,19.355,8.868c11.351,4.581,23.956,8.898,36.32,9.127
					c9.703,0.179,19.798-3.462,28.859-6.522c6.28-2.122,12.496-4.481,18.598-7.074c-1.224-0.94-2.448-1.882-3.673-2.823
					c-0.675,3.152-1.439,6.285-2.272,9.398c-1.414,5.287-3.736,9.379-6.788,13.921c-3.483,5.187-7.751,9.435-13.374,12.231
					c-6.768,3.367-15.375,3.861-22.783,3.966c-22.665,0.319-57.596-14.528-50.569-42.585c0.784-3.129-4.039-4.456-4.821-1.33
					c-7.476,29.85,25.421,47.069,50.559,48.786c15.202,1.038,31.548-1.754,41.795-13.848c7.448-8.79,10.704-18.147,13.076-29.21
					c0.494-2.31-1.667-3.676-3.673-2.823c-3.77,1.602-11.249,4.433-16.31,6.193c-8.863,3.084-18.308,6.284-27.755,6.706
					c-11.522,0.516-24.023-4.338-34.59-8.433c-6.619-2.564-13.177-5.493-19.43-8.865
					C244.328,349.435,241.803,353.751,244.642,355.281L244.642,355.281z"/>
			</g>
		</g>
		<g>
			<g>
				<path fill="#231815" d="M246.846,367.377c14.919,8.511,30.613,17.989,48.12,19.41c19.05,1.545,36.811-9.465,51.709-19.961
					c2.613-1.841,0.119-6.179-2.523-4.316c-14.167,9.979-30.1,19.952-48.072,19.341c-16.791-0.57-32.582-10.73-46.71-18.792
					C246.564,361.459,244.046,365.779,246.846,367.377L246.846,367.377z"/>
			</g>
		</g>
		<circle cx="220.89" cy="260.488" r="4.673"/>
		<circle cx="405.881" cy="258.436" r="4.673"/>
	</g>
</g>
<g id="レイヤー_3">
	<g>
		<rect x="0.022" y="-2" fill="#FFCC99" width="606.001" height="602.513"/>
		<g>

				<path fill="#996633" stroke="#231815" stroke-width="4" stroke-linecap="round" stroke-linejoin="round" stroke-miterlimit="10" d="
				M427.403,600.184"/>

				<path fill="#CCCCCC" stroke="#231815" stroke-width="4" stroke-linecap="round" stroke-linejoin="round" stroke-miterlimit="10" d="
				M196.414,426.993c0,0-74.608,18.165-83.169,83.567c-8.562,65.4,17.774,161.256,41.554,192.348
				c19.358,25.308,23.24,31.792,23.24,31.792s-14.179,8.733-14.735,13.753c-0.552,5.02,40.539,0.477,67.753-1.945
				c27.213-2.423,46.053-0.604,49.109-9.385c3.058-8.781-13.331-37.244-13.331-37.244s14.677-12.109,22.015-12.109
				s25.688,10.9,25.688,10.9s-16.618,35.121-9.279,41.178c7.338,6.056,105.338,11.888,117.568,7.177
				c12.229-4.708-10.568-19.289-10.568-19.289s77.497-127.898,52.011-207.487c-15.9-49.655-78.277-84.777-78.277-84.777
				L196.414,426.993z"/>
			<g>
				<g>
					<path fill="#231815" d="M253.179,537.3c3.709,8.868,6.217,18.525,12.945,25.707c0.946,1.01,2.577,0.92,3.535,0
						c3.409-3.27,6.691-6.146,9-10.347c-1.438,0-2.878,0-4.317,0c4.241,6.558,10.38,10.501,17.487,13.45
						c1.597,0.662,3.08-0.964,3.165-2.411c0.247-4.21,2.118-8.105,2.461-12.301c-1.055,0.804-2.109,1.607-3.165,2.411
						c6.962,2.508,12.833,6.983,19.086,10.817c1.627,0.998,3.763-0.293,3.762-2.158c-0.003-6.821-0.102-13.616-1.318-20.347
						c-0.574-3.169-5.392-1.822-4.822,1.33c1.136,6.277,1.138,12.657,1.141,19.017c1.254-0.72,2.508-1.439,3.762-2.158
						c-6.654-4.08-12.875-8.654-20.279-11.323c-1.641-0.591-3.043,0.913-3.165,2.411c-0.342,4.174-2.213,8.071-2.461,12.301
						c1.055-0.804,2.109-1.607,3.165-2.411c-5.828-2.418-11.02-5.771-14.5-11.151c-0.984-1.523-3.375-1.713-4.317,0
						c-2.1,3.818-5.133,6.374-8.219,9.335c1.178,0,2.357,0,3.535,0c-6.084-6.495-8.304-15.479-11.659-23.502
						C256.776,533.041,251.936,534.325,253.179,537.3L253.179,537.3z"/>
				</g>
			</g>
		</g>
		<g>
			<path fill="#CCCCCC" d="M158.314,131.692c26.644-36.334,96.74-58.598,136.708-58.598c42.388,0,121.111,21.8,155.023,50.868
				c8.812-19.483,39.822-49.824,64.044-36.5c39.395,21.666,22.225,61.747,6.177,94.144c14.863,17.27,21.417,34.4,28.685,61.045
				c15.744,59.344,15.088,119.154-24.877,166.386c-43.602,54.5-99.314,73.879-167.137,77.512
				c-53.289,3.634-129.469-5.351-180.336-24.729C116.046,437.6,89.281,393.295,69.902,333.949
				c-9.689-26.646-3.633-65.399,2.422-92.044c3.633-12.111,10.9-25.434,12.111-37.546c2.421-13.322,4.845-4.844-2.424-16.954
				c-2.422-6.058-9.688-12.111-13.321-18.169c-14.534-20.588-16.35-56.014,12.111-73.878
				C125.586,67.247,158.314,131.692,158.314,131.692z"/>
			<g>
				<path fill="#231815" d="M162.632,134.216c12.815-17.186,32.676-28.484,51.886-37.094c20.154-9.033,42.167-15.316,64.103-17.982
					c19.583-2.381,39.159-0.021,58.411,3.776c23.397,4.616,46.589,11.52,68.528,20.893c14.414,6.158,28.925,13.509,40.951,23.69
					c2.246,1.902,6.393,2.124,7.853-1.012c5.857-12.581,16.061-23.539,27.735-30.931c5.856-3.708,12.459-6.304,19.449-6.369
					c7.882-0.072,15.113,5.044,20.655,10.18c23.02,21.33,4.913,57.125-6.254,79.716c-1.07,2.164-0.771,4.233,0.782,6.059
					c16.618,19.543,24.068,44.172,29.866,68.732c6.261,26.517,9.122,54.351,5.159,81.441c-7.519,51.4-44.436,94.921-89.074,119.591
					c-42.412,23.439-93.044,28.341-140.695,27.313c-27.05-0.583-54.082-3.461-80.696-8.284c-24.818-4.497-50.2-10.466-73.13-21.208
					c-20.347-9.532-38.284-23.101-52.809-40.243c-14.191-16.749-24.394-36.725-32.455-57.026
					c-4.373-11.016-8.865-22.453-11.247-34.085c-2.673-13.052-2.123-26.792-0.917-39.979c1.176-12.852,3.576-25.582,6.413-38.16
					c1.51-6.695,4.843-13.207,7.278-19.602c2.637-6.925,3.859-13.782,5.458-20.953c0.646-2.895,2.413-5.677,1.789-8.719
					c-0.763-3.724-4.353-6.885-5.889-10.291c-2.483-5.504-7.543-9.795-11.147-14.535c-3.026-3.979-5.611-8.503-7.459-13.146
					c-7.695-19.33-3.593-42.121,13.751-54.718c15.229-11.06,32.935-9.74,47.515,1.533c9.977,7.714,17.959,18.067,24.208,28.952
					c0.465,0.81,0.923,1.627,1.348,2.459c2.933,5.745,11.56,0.684,8.635-5.047c-11.11-21.765-32.253-44.929-58.172-45.9
					c-20.844-0.78-39.906,14.719-47.498,33.278c-7.755,18.96-2.367,39.879,8.184,56.424c3.314,5.197,8.063,9.308,11.341,14.535
					c1.457,2.324,2.64,4.794,4.171,7.096c0.414,0.622,0.839,1.235,1.252,1.857c0.697,1.05,0.264-2.584-0.034-1.594
					c-1.302,4.326-2.155,8.514-3.024,12.961c-1.443,7.388-4.555,14.452-7.296,21.423c-4.808,12.229-7.147,24.958-9.079,37.922
					c-1.981,13.294-3.094,26.739-2.47,40.182c1.102,23.728,10.869,46.979,20.759,68.303c9.084,19.585,20.955,37.914,36.128,53.337
					c34.725,35.296,83.97,48.447,131.387,56.254c50.374,8.292,102.838,10.374,153.245,1.187
					c47.769-8.707,90.439-31.89,122.054-68.965c17.593-20.633,30.341-43.569,36.135-70.211c5.696-26.188,4.422-53.322-0.102-79.572
					c-5.456-31.665-14.64-64.715-35.813-89.615c0.261,2.02,0.521,4.04,0.782,6.059c13.863-28.046,31.426-67.061,3.721-92.732
					c-6.371-5.904-14.523-10.929-23.271-11.953c-8.651-1.012-17.003,1.593-24.618,5.538c-14.58,7.553-27.766,21.59-34.688,36.457
					c2.617-0.337,5.235-0.675,7.853-1.012c-16.324-13.821-36.158-22.94-55.986-30.539c-22.086-8.464-45.167-14.655-68.492-18.545
					c-19.367-3.23-38.312-4.099-57.765-1.223c-22.232,3.287-43.988,10.207-64.407,19.514c-20.072,9.15-39.6,21.654-52.934,39.534
					C150.137,134.345,158.825,139.321,162.632,134.216z"/>
			</g>
		</g>
		<g>
			<path fill="#333333" d="M206.45,348.824c-1.571-8.185,5.225-24.219,11.684-33.906c6.865-9.287,14.13-18.165,23.819-24.628
				c15.745-11.3,29.491-16.148,49.273-16.556c24.225-0.402,54.095,7.674,71.051,24.63c14.533,14.131,34.72,39.965,19.38,64.191
				c-14.129,21.797-35.527,30.275-60.558,35.116c-22.202,4.439-55.307,5.248-75.087-8.88
				C231.479,378.299,210.475,369.819,206.45,348.824z"/>
		</g>
		<g>
			<g>
				<path fill="#231815" d="M244.848,317.48c8.994-5.734,16.875-14.877,28.498-11.463c5.767,1.695,10.792,6.168,14.81,10.453
					c5.458,5.82,3.951,13,3.798,20.247c-0.068,3.23,4.89,3.213,5,0c0.415-12.044,2.026-27.657,15.294-32.353
					c7.554-2.673,23.287-4.617,25.412,5.971c0.635,3.16,5.454,1.819,4.822-1.328c-2.732-13.609-20.468-12.747-30.739-9.73
					c-16.346,4.8-19.285,22.796-19.789,37.44c1.667,0,3.333,0,5,0c0.159-7.517,1.441-14.821-3.23-21.311
					c-3.801-5.28-9.558-9.864-15.369-12.74c-14.531-7.189-24.465,3.122-36.03,10.497
					C239.615,314.891,242.121,319.221,244.848,317.48L244.848,317.48z"/>
			</g>
		</g>
		<g>
			<g>
				<path fill="#231815" d="M258.786,433.656c7.813,13.435,22.078,21.201,37.436,21.96c16.928,0.837,32.172-8.646,40.358-23.171
					c1.585-2.812-2.735-5.332-4.318-2.523c-7.311,12.972-20.001,20.713-34.944,20.722c-13.897,0.008-27.237-7.514-34.214-19.511
					C261.483,428.348,257.162,430.863,258.786,433.656L258.786,433.656z"/>
			</g>
		</g>
		<g>
			<g>
				<path fill="#231815" d="M424.298,295.323c-6.243,4.871-15.724,4.875-23.264,4.917c-3.224,0.018-3.226,5.018,0,5
					c9.121-0.051,19.329-0.554,26.799-6.382C430.373,296.877,426.808,293.365,424.298,295.323L424.298,295.323z"/>
			</g>
		</g>
		<g>
			<g>
				<path fill="#231815" d="M170.488,301.683c10.137,8.299,20.532,9.605,33.256,9.61c3.225,0.002,3.224-4.998,0-5
					c-11.211-0.004-20.724-0.781-29.721-8.146C171.55,296.123,167.991,299.639,170.488,301.683L170.488,301.683z"/>
			</g>
		</g>
		<g>
			<circle fill="#FFFFFF" cx="200.339" cy="261.446" r="18.773"/>
			<g>
				<path fill="#231815" d="M216.612,261.446c-0.335,9.124-7.147,15.938-16.272,16.273c-9.118,0.335-15.957-7.658-16.273-16.273
					c-0.335-9.118,7.659-15.954,16.273-16.271C209.457,244.84,216.295,252.831,216.612,261.446c0.118,3.214,5.119,3.226,5,0
					c-0.437-11.891-9.382-20.833-21.272-21.271c-11.881-0.437-20.86,10.034-21.273,21.271c-0.437,11.883,10.037,20.86,21.273,21.273
					c11.883,0.437,20.859-10.037,21.272-21.273C221.73,258.22,216.73,258.231,216.612,261.446z"/>
			</g>
		</g>
		<g>
			<circle fill="#FFFFFF" cx="399.73" cy="261.446" r="18.772"/>
			<g>
				<path fill="#231815" d="M416.002,261.446c-0.335,9.125-7.147,15.938-16.272,16.273c-9.118,0.335-15.955-7.658-16.271-16.273
					c-0.335-9.118,7.656-15.954,16.271-16.271C408.847,244.84,415.686,252.831,416.002,261.446c0.118,3.214,5.118,3.226,5,0
					c-0.438-11.891-9.383-20.833-21.272-21.271c-11.882-0.437-20.858,10.035-21.271,21.271
					c-0.437,11.882,10.034,20.86,21.271,21.273c11.883,0.437,20.859-10.037,21.272-21.273
					C421.12,258.22,416.12,258.231,416.002,261.446z"/>
			</g>
		</g>
		<g>
			<path fill="#999999" d="M281.472,366.494c-4.03,2.419-6.058,4.439-8.075,8.881c-1.616,2.827-1.616,6.864-2.019,10.093
				c-0.809,10.093-1.211,22.202,7.67,28.663c7.268,5.25,17.36,5.65,26.24,3.634c11.709-2.827,13.727-11.706,15.341-22.609
				c2.018-12.514-1.801-19.083-10.017-26.002c-9.512-8.01-16.222-7.4-26.662-4.326L281.472,366.494z"/>
			<g>
				<path fill="#231815" d="M280.21,364.336c-7.435,4.649-10.377,11.16-11.178,19.704c-0.735,7.843-1.446,16.767,2.078,24.1
					c3.595,7.48,10.852,11.744,18.948,12.831c7.742,1.039,17.763,0.53,24.108-4.631c5.858-4.766,7.527-12.037,8.669-19.168
					c1.24-7.747,1.166-15.12-3.147-21.923C311.489,362.318,293.745,355.235,280.21,364.336c-2.66,1.788-0.161,6.121,2.523,4.316
					c11.272-7.578,23.724-1.588,31.618,7.724c4.326,5.103,4.781,11.767,3.867,18.114c-0.785,5.455-1.615,11.523-5.124,15.985
					c-4.186,5.323-12.259,5.934-18.479,5.902c-7.402-0.038-14.861-2.956-18.622-9.582c-3.095-5.454-2.666-12.631-2.312-18.654
					c0.477-8.103,1.765-14.933,9.051-19.489C285.46,366.948,282.952,362.62,280.21,364.336z"/>
			</g>
		</g>
		<g>

				<path fill="#CCCCCC" stroke="#231815" stroke-width="6" stroke-linecap="round" stroke-linejoin="round" stroke-miterlimit="10" d="
				M356.211,592.267c0,0,11.861-46.449,4.514-66.331c-5.574-15.08-16.646-58.812-11.671-73.847
				c7.779-23.515,30.134-30.276,30.134-30.276s-11.456-31.46,2.16-36.298c13.615-4.833,27.238,19.988,27.238,19.988l29.711,54.062
				c0,0,36.249-0.659,46.262,39.463c9.511,38.102-11.02,84.535-11.02,84.535s-25.843,49.173-56.104,49.025
				C348.486,632.249,356.211,592.267,356.211,592.267z"/>

				<path fill="#CCCCCC" stroke="#231815" stroke-width="6" stroke-linecap="round" stroke-linejoin="round" stroke-miterlimit="10" d="
				M434.333,545.396c0,0,14.924-45.139,9.177-67.611c-5.746-22.479-15.438-36.831-15.438-36.831"/>
		</g>
		<g>

				<path fill="#CCCCCC" stroke="#231815" stroke-width="6" stroke-linecap="round" stroke-linejoin="round" stroke-miterlimit="10" d="
				M236.036,592.26c0,0-12.15-47.586-4.622-67.951c5.708-15.449,17.051-60.252,11.955-75.652
				c-7.972-24.091-30.87-31.017-30.87-31.017s11.735-32.229-2.214-37.186c-13.946-4.951-27.902,20.477-27.902,20.477l-30.44,55.385
				c0,0-37.134-0.676-47.394,40.428c-9.74,39.033,11.294,86.601,11.294,86.601s26.475,50.377,57.471,50.225
				C243.948,633.221,236.036,592.26,236.036,592.26z"/>

				<path fill="#CCCCCC" stroke="#231815" stroke-width="6" stroke-linecap="round" stroke-linejoin="round" stroke-miterlimit="10" d="
				M156.005,544.244c0,0-15.292-46.239-9.404-69.265c5.889-23.027,15.816-37.729,15.816-37.729"/>
		</g>
	</g>
</g>
<g id="レイヤー_1" display="none">
	<g display="inline">
		<rect x="-0.481" y="-0.153" fill="#F8C797" width="600.941" height="600.072"/>

			<path fill="#CBCBCB" stroke="#221714" stroke-width="6" stroke-linecap="round" stroke-linejoin="round" stroke-miterlimit="10" d="
			M116.566,376.017c0,0-105.534,31.465-82.877,103.659c23.941,76.311,81.403,84.332,132.826,72.624
			c51.423-11.709,83.782-23.419,83.782-23.419l-15.596-7.77l10.522-12.106l-12.167-0.769l1.645-11.708
			c0,0-37.132-1.128-43.215-2.801c-28.491-7.834-48.603-39.774-48.603-39.774"/>

			<path fill="#CBCBCB" stroke="#221714" stroke-width="7" stroke-linecap="round" stroke-linejoin="round" stroke-miterlimit="10" d="
			M194.072,408.017c0,0-71.417,17.564-79.611,80.785c-8.198,63.216,19.218,125.453,41.979,155.511
			c18.527,24.462,22.246,30.735,22.246,30.735s-13.573,8.439-14.104,13.291c-0.531,4.854,38.803,0.463,64.853-1.881
			c26.048-2.338,44.082-0.583,47.011-9.071c2.925-8.489-12.761-36-12.761-36s14.049-11.709,21.071-11.709
			c7.023,0,24.587,10.537,24.587,10.537s-15.904,33.952-8.88,39.805c7.022,5.855,100.832,11.491,112.535,6.942
			c11.711-4.556-10.114-18.65-10.114-18.65s71.976-93.21,47.581-170.145c-15.217-48.004-74.927-81.951-74.927-81.951
			L194.072,408.017z"/>
		<g>
			<g>
				<path fill="#CBCBCB" d="M126.336,116.205c26.537-38.709,118.71-54.85,158.521-54.85c42.22,0,116.584,20.012,150.363,50.978
					c8.776-20.753,33.803-40.025,57.917-25.811c29.561,17.421,15.471,42.739-0.513,77.253c14.802,18.398,21.33,36.649,28.567,65.034
					c15.685,63.226,15.028,126.943-24.776,177.263c-43.429,58.064-98.922,78.705-166.474,82.577
					c-53.081,3.869-128.959-5.704-179.622-26.345c-60.317-25.806-86.975-73.005-106.279-136.229
					c-9.649-28.389-3.616-69.675,2.414-98.06c3.619-12.904,6.214-28.642,12.065-39.999c5.684-11.033,11.712-8.577,4.471-21.479
					c-2.412-6.451-7.842-12.263-11.461-18.714c-14.477-21.936-6.501-41.78,10.859-55.493
					C96.097,65.703,126.336,116.205,126.336,116.205z"/>
				<g>
					<path fill="#221714" d="M130.654,118.729c10.385-14.846,28.183-23.893,44.519-30.565c19.796-8.085,40.783-13.3,61.799-17.036
						c17.144-3.047,34.734-5.164,52.175-4.708c21.996,0.575,43.967,5.261,65.047,11.309c27.222,7.811,56.191,18.861,77.49,38.139
						c2.156,1.952,6.486,2.096,7.853-1.012c5.078-11.555,14.081-21.847,26.112-26.358c12.764-4.786,26.291,0.552,34.931,10.499
						c6.297,7.25,5.26,17.315,2.955,25.888c-3.404,12.665-9.735,24.528-15.229,36.367c-1.046,2.253-0.746,4.139,0.782,6.059
						c15.652,19.677,22.796,43.755,28.495,67.864c6.424,27.172,9.667,55.197,7.409,83.097c-2.188,27.049-10.873,53.18-25.943,75.773
						c-14.029,21.034-32.173,39.965-52.993,54.327c-39.345,27.143-87.512,35.212-134.425,36.069
						c-26.468,0.482-53.048-1.736-79.189-5.803c-25.665-3.992-51.223-9.924-75.557-19.096
						c-21.325-8.037-40.847-20.853-56.744-37.155c-15.271-15.661-26.554-34.669-35.516-54.507
						c-9.818-21.733-19.096-45.856-20.443-69.826c-1.475-26.244,3.268-52.639,9.487-78.009c2.745-11.197,4.909-23.436,11.378-33.2
						c1.957-2.953,4.418-5.161,5.802-8.49c1.714-4.125-0.865-9.168-2.672-12.744c-5.609-11.102-14.743-20.792-18.169-32.892
						c-3.196-11.287,1.515-22.306,9.087-30.614c6.13-6.725,14.148-12.298,23.497-12.529c7.503-0.185,14.432,3.542,20.327,7.83
						c7.564,5.5,14.271,13.305,19.099,21.321c3.322,5.515,11.971,0.492,8.635-5.047c-5.79-9.612-13.751-18.186-22.687-24.909
						c-6.828-5.137-14.823-8.456-23.357-9.139c-10.125-0.81-19.352,3.978-26.982,10.15c-9.237,7.471-16.486,18.077-18.191,29.977
						c-1.942,13.558,4.038,25.505,11.488,36.396c3.748,5.478,7.433,10.989,9.889,17.198c1.311,3.314-2.544,5.864-4.401,8.444
						c-7.532,10.462-9.776,24.941-12.776,37.179c-6.188,25.244-10.457,51.414-9.527,77.491c0.867,24.309,9.753,47.949,19.142,70.149
						c8.577,20.281,19.411,39.437,33.764,56.211c14.503,16.949,32.773,30.369,52.761,40.142
						c22.62,11.06,47.729,17.341,72.321,22.196c26.317,5.196,53.143,8.206,79.95,9.107c47.091,1.584,96.344-3.779,138.862-25.277
						c21.261-10.749,40.121-25.895,56.062-43.527c18.042-19.961,32.544-42.504,40.663-68.269c8.091-25.677,9.406-53.188,7.02-79.851
						c-2.429-27.13-8.326-54.688-17.759-80.261c-4.951-13.421-11.834-25.659-20.735-36.849c0.261,2.02,0.521,4.04,0.782,6.059
						c10.338-22.279,29.831-53.969,9.163-76.089c-10.622-11.368-26.859-16.143-41.759-11.806
						c-15.02,4.372-27.284,17.391-33.443,31.405c2.617-0.337,5.235-0.675,7.853-1.012c-16.34-14.79-36.628-24.543-57.025-32.401
						c-22.007-8.478-45.143-14.417-68.482-17.755c-38.04-5.44-77.198,0.475-113.957,10.802
						c-27.756,7.798-60.045,19.615-77.271,44.239C118.312,118.98,126.987,123.97,130.654,118.729z"/>
				</g>
			</g>
			<g>
				<path fill="#323333" d="M180.046,345.994c-1.563-8.718,3.351-28.39,9.785-38.714c6.836-9.891,15.492-19.194,25.144-26.079
					c15.682-12.041,33.631-14.235,53.337-14.669c24.126-0.427,55.492,10.459,72.382,28.523
					c14.478,15.056,29.147,39.761,13.865,65.567c-14.071,23.226-35.384,32.26-60.312,37.414c-22.118,4.729-55.09,5.592-74.793-9.459
					C204.976,377.396,184.058,368.362,180.046,345.994z"/>
			</g>
			<g>
				<g>
					<path fill="#221714" d="M214.732,322.775c3.647-7.911,6.429-16.352,11.372-23.591c4.484-6.568,13.821-11.062,20.835-6.004
						c6.172,4.451,12.047,11.181,16.06,17.629c4.242,6.815,2.83,18.109,2.821,25.808c-0.005,4.209,6.32,4.169,6.5,0
						c0.362-8.415,3.155-16.908,6.522-24.562c3.164-7.192,8.136-17.041,16.238-19.569c15.393-4.803,30.208,11.273,32.573,25.439
						c0.689,4.127,6.952,2.371,6.268-1.729c-2.924-17.512-19.972-33.233-38.002-30.554c-10.217,1.519-16.667,11.231-21.047,19.69
						c-4.918,9.498-8.589,20.537-9.052,31.285c2.167,0,4.333,0,6.5,0c0.011-9.176,1.038-20.822-3.708-29.088
						c-4.494-7.828-11.909-15.287-19.176-20.527c-7.609-5.487-18.514-1.666-24.857,4.054c-7.986,7.202-11.102,18.987-15.459,28.438
						C207.378,323.273,212.979,326.578,214.732,322.775L214.732,322.775z"/>
				</g>
			</g>
			<g>
				<g>
					<path fill="#221714" d="M205.067,413.214c9.47,0.62,18.334,4.121,26.163,9.396c3.018,2.033,5.871,4.6,8.026,7.544
						c1.592,2.175,2.268,4.674,4.091,6.713c3.847,4.304,10.693,5.998,16.093,7.054c6.402,1.252,13.24,1.573,19.637,0.147
						c9.353-2.085,14.769-9.425,20.178-16.633c7.82-10.422,18.442-11.128,30.668-8.633c4.092,0.835,5.834-5.43,1.729-6.268
						c-11.71-2.39-23.995-2.771-33.19,5.933c-6.419,6.076-9.717,15.122-18.462,18.524c-5.851,2.276-12.784,1.703-18.831,0.661
						c-6.527-1.126-12.18-2.969-15.217-9.032c-3.055-6.099-9.514-10.607-15.187-14.002c-7.766-4.647-16.693-7.315-25.697-7.905
						C200.88,406.439,200.907,412.941,205.067,413.214L205.067,413.214z"/>
				</g>
			</g>
		</g>
		<g>
			<path fill="#F0EA4D" d="M148.47,225.18c43.434,12.1,75.562,7.764,103.163,6.787c-10.859,18.39-39.504,29.167-59.729,29.942
				c-14.93,0.571-21.264-5.023-30.313-10.83C149.825,244.302,151.183,238.73,148.47,225.18"/>
			<g>
				<path fill="#221714" d="M147.473,228.796c18.636,5.108,37.706,7.885,57.019,8.4c15.737,0.419,31.428-0.897,47.141-1.479
					c-1.08-1.881-2.159-3.762-3.238-5.643c-10.964,17.862-35.285,26.721-55.315,28.029c-11.884,0.775-20.036-4.07-29.597-10.262
					c-3.951-2.559-7.183-4.878-8.682-9.513c-1.466-4.531-1.811-9.484-2.714-14.146c-0.92-4.745-8.148-2.73-7.232,1.994
					c1.025,5.289,1.437,10.849,3.334,15.923c1.74,4.654,5.106,7.931,9.104,10.727c10.165,7.11,20.156,12.737,32.861,12.871
					c23.351,0.245,52.173-11.401,64.718-31.839c1.457-2.373-0.411-5.748-3.238-5.643c-14.725,0.546-29.411,1.681-44.157,1.534
					c-19.655-0.196-39.058-2.992-58.009-8.187C144.794,220.283,142.814,227.519,147.473,228.796L147.473,228.796z"/>
			</g>
		</g>
		<g>
			<path fill="#F0EA4D" d="M300.045,234.375c35.293,6.776,79.049,1.462,114.343-2.409c-10.727,16.444-27.005,38.208-50.09,38.223
				C338.053,270.204,315.43,249.862,300.045,234.375"/>
			<g>
				<path fill="#221714" d="M299.048,237.991c38.041,7.085,77.271,1.907,115.34-2.275c-1.079-1.881-2.159-3.762-3.238-5.643
					c-11.134,16.996-25.997,36.675-48.422,36.342c-23.923-0.355-44.147-18.755-60.031-34.692c-3.417-3.429-8.72,1.875-5.303,5.304
					c17.786,17.845,38.977,35.691,65.334,36.889c25.08,1.14,42.56-21.222,54.898-40.057c1.456-2.223-0.422-5.952-3.238-5.643
					c-37.292,4.097-76.073,9.485-113.346,2.542C296.315,229.878,294.297,237.106,299.048,237.991L299.048,237.991z"/>
			</g>
		</g>
		<g>
			<g>
				<path fill="#221714" d="M166.608,185.726c9.866,2.391,17.558-0.159,25.688-5.733c3.166-2.171,6.01-3.92,9.954-3.785
					c5.57,0.191,10.115,4.336,13.509,8.329c5.719,6.726,8.192,14.964,15.731,20.188c9.087,6.297,21.627,4.92,31.864,3.263
					c4.13-0.668,2.372-6.932-1.728-6.268c-10.542,1.707-22.566,2.568-30.54-5.833c-2.679-2.822-4.347-6.697-6.402-9.972
					c-2.327-3.708-5.068-7.182-8.335-10.102c-6.297-5.629-14.984-7.876-22.775-4.234c-3.337,1.56-6.219,4.061-9.375,5.944
					c-4.995,2.982-10.28,3.288-15.863,1.936C164.263,178.471,162.536,184.739,166.608,185.726L166.608,185.726z"/>
			</g>
		</g>
		<g>
			<g>
				<path fill="#221714" d="M380.997,188.169c-9.776-3.82-19.992-6.074-30.494-6.417c-8.127-0.265-17.902,0.595-24.762,5.38
					c-5.44,3.794-9.906,8.944-14.593,13.585c-1.995,1.976-9.653,10.737-12.877,7.645c-3.023-2.9-7.626,1.69-4.596,4.597
					c9.617,9.224,23.195-8.871,29.177-14.753c2.366-2.327,4.804-4.614,7.597-6.421c3.723-2.409,8.969-2.899,13.247-3.322
					c12.083-1.196,24.373,1.599,35.572,5.975C383.178,195.965,384.855,189.677,380.997,188.169L380.997,188.169z"/>
			</g>
		</g>
		<g>
			<g>
				<path fill="#221714" d="M269.31,183.456c1.672,7.694,1.69,15.496,1.693,23.333c0.001,4.191,6.501,4.192,6.5,0
					c-0.003-8.426-0.128-16.794-1.925-25.061C274.688,177.632,268.422,179.37,269.31,183.456L269.31,183.456z"/>
			</g>
		</g>
		<g>
			<g>
				<path fill="#221714" d="M284.694,188.294c0.653,4-0.164,7.901-0.903,11.825c-0.772,4.096,5.491,5.844,6.268,1.728
					c0.975-5.169,1.761-10.033,0.903-15.28C290.288,182.438,284.024,184.195,284.694,188.294L284.694,188.294z"/>
			</g>
		</g>
		<g>
			<path fill="#FFFFFF" d="M208.956,379.59c11.766,0,24.437-0.97,36.197-4.84c11.765-3.874,19.005-11.617,30.77-9.678
				c9.049,1.933,19.908,8.708,30.767,10.643c10.86,1.937,22.625,1.937,33.483,3.875c-22.623,4.84-43.438,22.262-66.059,24.195
				c-26.246,1.938-41.629-14.52-64.253-24.195"/>
			<g>
				<path fill="#221714" d="M208.956,382.84c11.303-0.048,22.553-0.972,33.507-3.88c9.863-2.619,18.63-10.152,28.875-10.926
					c5.259-0.396,10.594,2.235,15.331,4.196c5.24,2.168,10.421,4.39,15.899,5.902c11.854,3.274,24.655,2.559,36.739,4.591
					c0-2.089,0-4.179,0-6.268c-23.133,5.253-42.804,22.745-66.855,24.178c-23.025,1.372-41.033-15.149-60.952-23.851
					c-3.801-1.66-7.114,3.938-3.28,5.613c20.4,8.91,37.764,24.17,60.996,24.791c26.023,0.696,47.276-18.891,71.82-24.464
					c3.015-0.685,3.208-5.728,0-6.268c-12.156-2.045-24.737-1.71-36.739-4.591c-10.292-2.471-19.384-8.87-29.952-10.249
					c-9.785-1.276-18.429,5.264-26.953,8.857c-11.96,5.042-25.625,5.812-38.436,5.866
					C204.765,376.357,204.763,382.857,208.956,382.84L208.956,382.84z"/>
			</g>
		</g>
		<g>
			<path fill="#CBCBCB" stroke="#221714" stroke-width="5" stroke-miterlimit="10" d="M553.557,504.89
				c2.418-16.961,2.872-57.566,0.653-74.894c-2.08-16.229-30.974-59.039-63.29-20.686c-8.754,10.388,9.45,101.252,4.132,100.245
				c-31.294-5.921-22.183-188.718-74.732-165.427c-40.484,17.945-21.667,52.475-18.155,69.29
				c3.507,16.817,28.346,133.684,39.086,145.457c10.738,11.77,46.896,19.03,74.318,8.476
				C542.986,556.8,550.4,527.015,553.557,504.89z"/>
			<g>
				<path fill="#CBCBCB" stroke="#221714" stroke-width="2" stroke-miterlimit="10" d="M387.993,340.58
					c-20.884,16.119-13.701,39.71-21.812,60.822c-2.293,5.964-7.103,15.43-11.43,21.208c-9.915,13.238-16.663,24.546-11.325,40.252
					c12.071,35.541,31.625-10.733,35.271-23.739c6.499-23.146,19.75-32.656,27.853-29.133c8.104,3.52,18.7,136.776,22.313,143.559
					c16.49,30.933,40.721,17.203,39.559-9.561c-0.553-12.734-36.657-111.773-24.199-114.371
					c13.692-2.861,42.714,86.459,63.368,106.379c18.168,17.526,53.929,4.084,48.397-20.229
					c-3.503-15.415-98.793-103.973-75.782-105.132c14.115-0.711,38.054,36.977,69.697,40.603
					c30.765,3.522,35.321-16.993,7.892-37.709c-22.759-17.184-65.029-31.737-69.173-35.479c-4.143-3.737-1.22-10.371,5.058-13.099
					c12.414-5.393,37.592-7.45,47.546-8.66c14.667-1.783,32.513-2.061,31.914-17.962c-0.596-15.843-22.538-9.325-53.168-3.552
					c-41.542,7.831-52.853-11.561-72.316-2.157C424.48,343.819,415.312,319.482,387.993,340.58z"/>
				<path fill="#989898" d="M406.55,409.99c8.104,3.52,18.7,136.776,22.313,143.559c16.49,30.933,40.721,17.203,39.559-9.561
					c-0.553-12.734-36.657-111.773-24.199-114.371c13.692-2.861,42.714,86.459,63.368,106.379
					c18.168,17.526,53.929,4.084,48.397-20.229c-3.503-15.415-98.793-103.973-75.782-105.132
					c14.115-0.711,38.054,36.977,69.697,40.603c30.765,3.522,35.321-16.993,7.892-37.709
					c-22.759-17.184-65.029-31.737-69.173-35.479c-4.143-3.737-1.22-10.371,5.058-13.099c12.414-5.393,37.592-7.45,47.546-8.66
					c14.667-1.783,32.513-2.061,31.914-17.962c-0.596-15.843-22.573-9.495-53.168-3.552c-25.275,4.906-35.286-2.751-39.432,32.404
					C470.815,449.642,441.234,419.615,406.55,409.99z"/>
				<path fill="#211613" d="M438.645,391.78c3.588-7.113-0.246-31.718,3.108-32.779c3.35-1.065,19.653,32.365-3.966,48.787
					c-6.377,4.435-24.256,12.054-23.601,8.73C414.838,413.193,435.056,398.891,438.645,391.78z"/>
				<path fill="none" stroke="#221714" stroke-width="6" stroke-miterlimit="10" d="M387.993,340.58
					c-20.884,16.119-13.701,39.71-21.812,60.822c-2.293,5.964-7.103,15.43-11.43,21.208c-9.915,13.238-16.663,24.546-11.325,40.252
					c12.071,35.541,31.625-10.733,35.271-23.739c6.499-23.146,19.75-32.656,27.853-29.133c8.104,3.52,18.7,136.776,22.313,143.559
					c16.49,30.933,40.721,17.203,39.559-9.561c-0.553-12.734-36.657-111.773-24.199-114.371
					c13.692-2.861,42.714,86.459,63.368,106.379c18.168,17.526,53.929,4.084,48.397-20.229
					c-3.503-15.415-98.793-103.973-75.782-105.132c14.115-0.711,38.054,36.977,69.697,40.603
					c30.765,3.522,35.321-16.993,7.892-37.709c-22.759-17.184-65.029-31.737-69.173-35.479c-4.143-3.737-1.22-10.371,5.058-13.099
					c12.414-5.393,37.592-7.45,47.546-8.66c14.667-1.783,32.513-2.061,31.914-17.962c-0.596-15.843-22.538-9.325-53.168-3.552
					c-41.542,7.831-52.853-11.561-72.316-2.157C424.48,343.819,415.312,319.482,387.993,340.58z"/>
			</g>
		</g>
	</g>
</g>
</svg>
