<svg version="1.1" id="レイヤー_1" xmlns="http://www.w3.org/2000/svg" xmlns:xlink="http://www.w3.org/1999/xlink" x="0px"
	 y="0px" width="600px" height="600px" viewBox="0 0 600 600" enable-background="new 0 0 600 600" xml:space="preserve">
<g>
	<rect x="-0.481" y="-0.153" fill="#F8C797" width="600.941" height="600.072"/>

		<path fill="#CBCBCB" stroke="#221714" stroke-width="6" stroke-linecap="round" stroke-linejoin="round" stroke-miterlimit="10" d="
		M116.566,376.017c0,0-105.534,31.465-82.877,103.659c23.941,76.311,81.403,84.332,132.826,72.624
		c51.423-11.709,83.782-23.419,83.782-23.419l-15.596-7.77l10.522-12.106l-12.167-0.769l1.645-11.708c0,0-37.132-1.128-43.215-2.801
		c-28.491-7.834-48.603-39.774-48.603-39.774"/>

		<path fill="#CBCBCB" stroke="#221714" stroke-width="7" stroke-linecap="round" stroke-linejoin="round" stroke-miterlimit="10" d="
		M194.072,408.017c0,0-71.417,17.564-79.611,80.785c-8.198,63.216,19.218,125.453,41.979,155.511
		c18.527,24.462,22.246,30.735,22.246,30.735s-13.573,8.439-14.104,13.291c-0.531,4.854,38.803,0.463,64.853-1.881
		c26.048-2.338,44.082-0.583,47.011-9.071c2.925-8.489-12.761-36-12.761-36s14.049-11.709,21.071-11.709
		c7.023,0,24.587,10.537,24.587,10.537s-15.904,33.952-8.88,39.805c7.022,5.855,100.832,11.491,112.535,6.942
		c11.711-4.556-10.114-18.65-10.114-18.65s71.976-93.21,47.581-170.145c-15.217-48.004-74.927-81.951-74.927-81.951L194.072,408.017
		z"/>
	<g>
		<g>
			<path fill="#CBCBCB" d="M126.336,116.205c26.537-38.709,118.71-54.85,158.521-54.85c42.22,0,116.584,20.012,150.363,50.978
				c8.776-20.753,33.803-40.025,57.917-25.811c29.561,17.421,15.471,42.739-0.513,77.253c14.802,18.398,21.33,36.649,28.567,65.034
				c15.685,63.226,15.028,126.943-24.776,177.263c-43.429,58.064-98.922,78.705-166.474,82.577
				c-53.081,3.869-128.959-5.704-179.622-26.345c-60.317-25.806-86.975-73.005-106.279-136.229
				c-9.649-28.389-3.616-69.675,2.414-98.06c3.619-12.904,6.214-28.642,12.065-39.999c5.684-11.033,11.712-8.577,4.471-21.479
				c-2.412-6.451-7.842-12.263-11.461-18.714c-14.477-21.936-6.501-41.78,10.859-55.493
				C96.097,65.703,126.336,116.205,126.336,116.205z"/>
			<g>
				<path fill="#221714" d="M130.654,118.729c10.385-14.846,28.183-23.893,44.519-30.565c19.796-8.085,40.783-13.3,61.799-17.036
					c17.144-3.047,34.734-5.164,52.175-4.708c21.996,0.575,43.967,5.261,65.047,11.309c27.222,7.811,56.191,18.861,77.49,38.139
					c2.156,1.952,6.486,2.096,7.853-1.012c5.078-11.555,14.081-21.847,26.112-26.358c12.764-4.786,26.291,0.552,34.931,10.499
					c6.297,7.25,5.26,17.315,2.955,25.888c-3.404,12.665-9.735,24.528-15.229,36.367c-1.046,2.253-0.746,4.139,0.782,6.059
					c15.652,19.677,22.796,43.755,28.495,67.864c6.424,27.172,9.667,55.197,7.409,83.097c-2.188,27.049-10.873,53.18-25.943,75.773
					c-14.029,21.034-32.173,39.965-52.993,54.327c-39.345,27.143-87.512,35.212-134.425,36.069
					c-26.468,0.482-53.048-1.736-79.189-5.803c-25.665-3.992-51.223-9.924-75.557-19.096c-21.325-8.037-40.847-20.853-56.744-37.155
					c-15.271-15.661-26.554-34.669-35.516-54.507c-9.818-21.733-19.096-45.856-20.443-69.826
					c-1.475-26.244,3.268-52.639,9.487-78.009c2.745-11.197,4.909-23.436,11.378-33.2c1.957-2.953,4.418-5.161,5.802-8.49
					c1.714-4.125-0.865-9.168-2.672-12.744c-5.609-11.102-14.743-20.792-18.169-32.892c-3.196-11.287,1.515-22.306,9.087-30.614
					c6.13-6.725,14.148-12.298,23.497-12.529c7.503-0.185,14.432,3.542,20.327,7.83c7.564,5.5,14.271,13.305,19.099,21.321
					c3.322,5.515,11.971,0.492,8.635-5.047c-5.79-9.612-13.751-18.186-22.687-24.909c-6.828-5.137-14.823-8.456-23.357-9.139
					c-10.125-0.81-19.352,3.978-26.982,10.15c-9.237,7.471-16.486,18.077-18.191,29.977c-1.942,13.558,4.038,25.505,11.488,36.396
					c3.748,5.478,7.433,10.989,9.889,17.198c1.311,3.314-2.544,5.864-4.401,8.444c-7.532,10.462-9.776,24.941-12.776,37.179
					c-6.188,25.244-10.457,51.414-9.527,77.491c0.867,24.309,9.753,47.949,19.142,70.149c8.577,20.281,19.411,39.437,33.764,56.211
					c14.503,16.949,32.773,30.369,52.761,40.142c22.62,11.06,47.729,17.341,72.321,22.196c26.317,5.196,53.143,8.206,79.95,9.107
					c47.091,1.584,96.344-3.779,138.862-25.277c21.261-10.749,40.121-25.895,56.062-43.527
					c18.042-19.961,32.544-42.504,40.663-68.269c8.091-25.677,9.406-53.188,7.02-79.851c-2.429-27.13-8.326-54.688-17.759-80.261
					c-4.951-13.421-11.834-25.659-20.735-36.849c0.261,2.02,0.521,4.04,0.782,6.059c10.338-22.279,29.831-53.969,9.163-76.089
					c-10.622-11.368-26.859-16.143-41.759-11.806c-15.02,4.372-27.284,17.391-33.443,31.405c2.617-0.337,5.235-0.675,7.853-1.012
					c-16.34-14.79-36.628-24.543-57.025-32.401c-22.007-8.478-45.143-14.417-68.482-17.755c-38.04-5.44-77.198,0.475-113.957,10.802
					c-27.756,7.798-60.045,19.615-77.271,44.239C118.312,118.98,126.987,123.97,130.654,118.729z"/>
			</g>
		</g>
		<g>
			<path fill="#323333" d="M180.046,345.994c-1.563-8.718,3.351-28.39,9.785-38.714c6.836-9.891,15.492-19.194,25.144-26.079
				c15.682-12.041,33.631-14.235,53.337-14.669c24.126-0.427,55.492,10.459,72.382,28.523
				c14.478,15.056,29.147,39.761,13.865,65.567c-14.071,23.226-35.384,32.26-60.312,37.414c-22.118,4.729-55.09,5.592-74.793-9.459
				C204.976,377.396,184.058,368.362,180.046,345.994z"/>
		</g>
		<g>
			<g>
				<path fill="#221714" d="M214.732,322.775c3.647-7.911,6.429-16.352,11.372-23.591c4.484-6.568,13.821-11.062,20.835-6.004
					c6.172,4.451,12.047,11.181,16.06,17.629c4.242,6.815,2.83,18.109,2.821,25.808c-0.005,4.209,6.32,4.169,6.5,0
					c0.362-8.415,3.155-16.908,6.522-24.562c3.164-7.192,8.136-17.041,16.238-19.569c15.393-4.803,30.208,11.273,32.573,25.439
					c0.689,4.127,6.952,2.371,6.268-1.729c-2.924-17.512-19.972-33.233-38.002-30.554c-10.217,1.519-16.667,11.231-21.047,19.69
					c-4.918,9.498-8.589,20.537-9.052,31.285c2.167,0,4.333,0,6.5,0c0.011-9.176,1.038-20.822-3.708-29.088
					c-4.494-7.828-11.909-15.287-19.176-20.527c-7.609-5.487-18.514-1.666-24.857,4.054c-7.986,7.202-11.102,18.987-15.459,28.438
					C207.378,323.273,212.979,326.578,214.732,322.775L214.732,322.775z"/>
			</g>
		</g>
		<g>
			<g>
				<path fill="#221714" d="M205.067,413.214c9.47,0.62,18.334,4.121,26.163,9.396c3.018,2.033,5.871,4.6,8.026,7.544
					c1.592,2.175,2.268,4.674,4.091,6.713c3.847,4.304,10.693,5.998,16.093,7.054c6.402,1.252,13.24,1.573,19.637,0.147
					c9.353-2.085,14.769-9.425,20.178-16.633c7.82-10.422,18.442-11.128,30.668-8.633c4.092,0.835,5.834-5.43,1.729-6.268
					c-11.71-2.39-23.995-2.771-33.19,5.933c-6.419,6.076-9.717,15.122-18.462,18.524c-5.851,2.276-12.784,1.703-18.831,0.661
					c-6.527-1.126-12.18-2.969-15.217-9.032c-3.055-6.099-9.514-10.607-15.187-14.002c-7.766-4.647-16.693-7.315-25.697-7.905
					C200.88,406.439,200.907,412.941,205.067,413.214L205.067,413.214z"/>
			</g>
		</g>
	</g>
	<g>
		<path fill="#F0EA4D" d="M148.47,225.18c43.434,12.1,75.562,7.764,103.163,6.787c-10.859,18.39-39.504,29.167-59.729,29.942
			c-14.93,0.571-21.264-5.023-30.313-10.83C149.825,244.302,151.183,238.73,148.47,225.18"/>
		<g>
			<path fill="#221714" d="M147.473,228.796c18.636,5.108,37.706,7.885,57.019,8.4c15.737,0.419,31.428-0.897,47.141-1.479
				c-1.08-1.881-2.159-3.762-3.238-5.643c-10.964,17.862-35.285,26.721-55.315,28.029c-11.884,0.775-20.036-4.07-29.597-10.262
				c-3.951-2.559-7.183-4.878-8.682-9.513c-1.466-4.531-1.811-9.484-2.714-14.146c-0.92-4.745-8.148-2.73-7.232,1.994
				c1.025,5.289,1.437,10.849,3.334,15.923c1.74,4.654,5.106,7.931,9.104,10.727c10.165,7.11,20.156,12.737,32.861,12.871
				c23.351,0.245,52.173-11.401,64.718-31.839c1.457-2.373-0.411-5.748-3.238-5.643c-14.725,0.546-29.411,1.681-44.157,1.534
				c-19.655-0.196-39.058-2.992-58.009-8.187C144.794,220.283,142.814,227.519,147.473,228.796L147.473,228.796z"/>
		</g>
	</g>
	<g>
		<path fill="#F0EA4D" d="M300.045,234.375c35.293,6.776,79.049,1.462,114.343-2.409c-10.727,16.444-27.005,38.208-50.09,38.223
			C338.053,270.204,315.43,249.862,300.045,234.375"/>
		<g>
			<path fill="#221714" d="M299.048,237.991c38.041,7.085,77.271,1.907,115.34-2.275c-1.079-1.881-2.159-3.762-3.238-5.643
				c-11.134,16.996-25.997,36.675-48.422,36.342c-23.923-0.355-44.147-18.755-60.031-34.692c-3.417-3.429-8.72,1.875-5.303,5.304
				c17.786,17.845,38.977,35.691,65.334,36.889c25.08,1.14,42.56-21.222,54.898-40.057c1.456-2.223-0.422-5.952-3.238-5.643
				c-37.292,4.097-76.073,9.485-113.346,2.542C296.315,229.878,294.297,237.106,299.048,237.991L299.048,237.991z"/>
		</g>
	</g>
	<g>
		<g>
			<path fill="#221714" d="M166.608,185.726c9.866,2.391,17.558-0.159,25.688-5.733c3.166-2.171,6.01-3.92,9.954-3.785
				c5.57,0.191,10.115,4.336,13.509,8.329c5.719,6.726,8.192,14.964,15.731,20.188c9.087,6.297,21.627,4.92,31.864,3.263
				c4.13-0.668,2.372-6.932-1.728-6.268c-10.542,1.707-22.566,2.568-30.54-5.833c-2.679-2.822-4.347-6.697-6.402-9.972
				c-2.327-3.708-5.068-7.182-8.335-10.102c-6.297-5.629-14.984-7.876-22.775-4.234c-3.337,1.56-6.219,4.061-9.375,5.944
				c-4.995,2.982-10.28,3.288-15.863,1.936C164.263,178.471,162.536,184.739,166.608,185.726L166.608,185.726z"/>
		</g>
	</g>
	<g>
		<g>
			<path fill="#221714" d="M380.997,188.169c-9.776-3.82-19.992-6.074-30.494-6.417c-8.127-0.265-17.902,0.595-24.762,5.38
				c-5.44,3.794-9.906,8.944-14.593,13.585c-1.995,1.976-9.653,10.737-12.877,7.645c-3.023-2.9-7.626,1.69-4.596,4.597
				c9.617,9.224,23.195-8.871,29.177-14.753c2.366-2.327,4.804-4.614,7.597-6.421c3.723-2.409,8.969-2.899,13.247-3.322
				c12.083-1.196,24.373,1.599,35.572,5.975C383.178,195.965,384.855,189.677,380.997,188.169L380.997,188.169z"/>
		</g>
	</g>
	<g>
		<g>
			<path fill="#221714" d="M269.31,183.456c1.672,7.694,1.69,15.496,1.693,23.333c0.001,4.191,6.501,4.192,6.5,0
				c-0.003-8.426-0.128-16.794-1.925-25.061C274.688,177.632,268.422,179.37,269.31,183.456L269.31,183.456z"/>
		</g>
	</g>
	<g>
		<g>
			<path fill="#221714" d="M284.694,188.294c0.653,4-0.164,7.901-0.903,11.825c-0.772,4.096,5.491,5.844,6.268,1.728
				c0.975-5.169,1.761-10.033,0.903-15.28C290.288,182.438,284.024,184.195,284.694,188.294L284.694,188.294z"/>
		</g>
	</g>
	<g>
		<path fill="#FFFFFF" d="M208.956,379.59c11.766,0,24.437-0.97,36.197-4.84c11.765-3.874,19.005-11.617,30.77-9.678
			c9.049,1.933,19.908,8.708,30.767,10.643c10.86,1.937,22.625,1.937,33.483,3.875c-22.623,4.84-43.438,22.262-66.059,24.195
			c-26.246,1.938-41.629-14.52-64.253-24.195"/>
		<g>
			<path fill="#221714" d="M208.956,382.84c11.303-0.048,22.553-0.972,33.507-3.88c9.863-2.619,18.63-10.152,28.875-10.926
				c5.259-0.396,10.594,2.235,15.331,4.196c5.24,2.168,10.421,4.39,15.899,5.902c11.854,3.274,24.655,2.559,36.739,4.591
				c0-2.089,0-4.179,0-6.268c-23.133,5.253-42.804,22.745-66.855,24.178c-23.025,1.372-41.033-15.149-60.952-23.851
				c-3.801-1.66-7.114,3.938-3.28,5.613c20.4,8.91,37.764,24.17,60.996,24.791c26.023,0.696,47.276-18.891,71.82-24.464
				c3.015-0.685,3.208-5.728,0-6.268c-12.156-2.045-24.737-1.71-36.739-4.591c-10.292-2.471-19.384-8.87-29.952-10.249
				c-9.785-1.276-18.429,5.264-26.953,8.857c-11.96,5.042-25.625,5.812-38.436,5.866
				C204.765,376.357,204.763,382.857,208.956,382.84L208.956,382.84z"/>
		</g>
	</g>
	<g>
		<path fill="#CBCBCB" stroke="#221714" stroke-width="5" stroke-miterlimit="10" d="M553.557,504.89
			c2.418-16.961,2.872-57.566,0.653-74.894c-2.08-16.229-30.974-59.039-63.29-20.686c-8.754,10.388,9.45,101.252,4.132,100.245
			c-31.294-5.921-22.183-188.718-74.732-165.427c-40.484,17.945-21.667,52.475-18.155,69.29
			c3.507,16.817,28.346,133.684,39.086,145.457c10.738,11.77,46.896,19.03,74.318,8.476C542.986,556.8,550.4,527.015,553.557,504.89
			z"/>
		<g>
			<path fill="#CBCBCB" stroke="#221714" stroke-width="2" stroke-miterlimit="10" d="M387.993,340.58
				c-20.884,16.119-13.701,39.71-21.812,60.822c-2.293,5.964-7.103,15.43-11.43,21.208c-9.915,13.238-16.663,24.546-11.325,40.252
				c12.071,35.541,31.625-10.733,35.271-23.739c6.499-23.146,19.75-32.656,27.853-29.133c8.104,3.52,18.7,136.776,22.313,143.559
				c16.49,30.933,40.721,17.203,39.559-9.561c-0.553-12.734-36.657-111.773-24.199-114.371
				c13.692-2.861,42.714,86.459,63.368,106.379c18.168,17.526,53.929,4.084,48.397-20.229
				c-3.503-15.415-98.793-103.973-75.782-105.132c14.115-0.711,38.054,36.977,69.697,40.603
				c30.765,3.522,35.321-16.993,7.892-37.709c-22.759-17.184-65.029-31.737-69.173-35.479c-4.143-3.737-1.22-10.371,5.058-13.099
				c12.414-5.393,37.592-7.45,47.546-8.66c14.667-1.783,32.513-2.061,31.914-17.962c-0.596-15.843-22.538-9.325-53.168-3.552
				c-41.542,7.831-52.853-11.561-72.316-2.157C424.48,343.819,415.312,319.482,387.993,340.58z"/>
			<path fill="#989898" d="M406.55,409.99c8.104,3.52,18.7,136.776,22.313,143.559c16.49,30.933,40.721,17.203,39.559-9.561
				c-0.553-12.734-36.657-111.773-24.199-114.371c13.692-2.861,42.714,86.459,63.368,106.379
				c18.168,17.526,53.929,4.084,48.397-20.229c-3.503-15.415-98.793-103.973-75.782-105.132
				c14.115-0.711,38.054,36.977,69.697,40.603c30.765,3.522,35.321-16.993,7.892-37.709c-22.759-17.184-65.029-31.737-69.173-35.479
				c-4.143-3.737-1.22-10.371,5.058-13.099c12.414-5.393,37.592-7.45,47.546-8.66c14.667-1.783,32.513-2.061,31.914-17.962
				c-0.596-15.843-22.573-9.495-53.168-3.552c-25.275,4.906-35.286-2.751-39.432,32.404
				C470.815,449.642,441.234,419.615,406.55,409.99z"/>
			<path fill="#211613" d="M438.645,391.78c3.588-7.113-0.246-31.718,3.108-32.779c3.35-1.065,19.653,32.365-3.966,48.787
				c-6.377,4.435-24.256,12.054-23.601,8.73C414.838,413.193,435.056,398.891,438.645,391.78z"/>
			<path fill="none" stroke="#221714" stroke-width="6" stroke-miterlimit="10" d="M387.993,340.58
				c-20.884,16.119-13.701,39.71-21.812,60.822c-2.293,5.964-7.103,15.43-11.43,21.208c-9.915,13.238-16.663,24.546-11.325,40.252
				c12.071,35.541,31.625-10.733,35.271-23.739c6.499-23.146,19.75-32.656,27.853-29.133c8.104,3.52,18.7,136.776,22.313,143.559
				c16.49,30.933,40.721,17.203,39.559-9.561c-0.553-12.734-36.657-111.773-24.199-114.371
				c13.692-2.861,42.714,86.459,63.368,106.379c18.168,17.526,53.929,4.084,48.397-20.229
				c-3.503-15.415-98.793-103.973-75.782-105.132c14.115-0.711,38.054,36.977,69.697,40.603
				c30.765,3.522,35.321-16.993,7.892-37.709c-22.759-17.184-65.029-31.737-69.173-35.479c-4.143-3.737-1.22-10.371,5.058-13.099
				c12.414-5.393,37.592-7.45,47.546-8.66c14.667-1.783,32.513-2.061,31.914-17.962c-0.596-15.843-22.538-9.325-53.168-3.552
				c-41.542,7.831-52.853-11.561-72.316-2.157C424.48,343.819,415.312,319.482,387.993,340.58z"/>
		</g>
	</g>
</g>
</svg>
